%TF.GenerationSoftware,KiCad,Pcbnew,9.0.2*%
%TF.CreationDate,2025-06-29T16:27:35+05:30*%
%TF.ProjectId,Mechatron Schematic,4d656368-6174-4726-9f6e-20536368656d,rev?*%
%TF.SameCoordinates,Original*%
%TF.FileFunction,Soldermask,Top*%
%TF.FilePolarity,Negative*%
%FSLAX46Y46*%
G04 Gerber Fmt 4.6, Leading zero omitted, Abs format (unit mm)*
G04 Created by KiCad (PCBNEW 9.0.2) date 2025-06-29 16:27:35*
%MOMM*%
%LPD*%
G01*
G04 APERTURE LIST*
G04 Aperture macros list*
%AMRoundRect*
0 Rectangle with rounded corners*
0 $1 Rounding radius*
0 $2 $3 $4 $5 $6 $7 $8 $9 X,Y pos of 4 corners*
0 Add a 4 corners polygon primitive as box body*
4,1,4,$2,$3,$4,$5,$6,$7,$8,$9,$2,$3,0*
0 Add four circle primitives for the rounded corners*
1,1,$1+$1,$2,$3*
1,1,$1+$1,$4,$5*
1,1,$1+$1,$6,$7*
1,1,$1+$1,$8,$9*
0 Add four rect primitives between the rounded corners*
20,1,$1+$1,$2,$3,$4,$5,0*
20,1,$1+$1,$4,$5,$6,$7,0*
20,1,$1+$1,$6,$7,$8,$9,0*
20,1,$1+$1,$8,$9,$2,$3,0*%
%AMFreePoly0*
4,1,37,0.800000,0.796148,0.878414,0.796148,1.032228,0.765552,1.177117,0.705537,1.307515,0.618408,1.418408,0.507515,1.505537,0.377117,1.565552,0.232228,1.596148,0.078414,1.596148,-0.078414,1.565552,-0.232228,1.505537,-0.377117,1.418408,-0.507515,1.307515,-0.618408,1.177117,-0.705537,1.032228,-0.765552,0.878414,-0.796148,0.800000,-0.796148,0.800000,-0.800000,-1.400000,-0.800000,
-1.403843,-0.796157,-1.439018,-0.796157,-1.511114,-0.766294,-1.566294,-0.711114,-1.596157,-0.639018,-1.596157,-0.603843,-1.600000,-0.600000,-1.600000,0.600000,-1.596157,0.603843,-1.596157,0.639018,-1.566294,0.711114,-1.511114,0.766294,-1.439018,0.796157,-1.403843,0.796157,-1.400000,0.800000,0.800000,0.800000,0.800000,0.796148,0.800000,0.796148,$1*%
%AMFreePoly1*
4,1,37,1.403843,0.796157,1.439018,0.796157,1.511114,0.766294,1.566294,0.711114,1.596157,0.639018,1.596157,0.603843,1.600000,0.600000,1.600000,-0.600000,1.596157,-0.603843,1.596157,-0.639018,1.566294,-0.711114,1.511114,-0.766294,1.439018,-0.796157,1.403843,-0.796157,1.400000,-0.800000,-0.800000,-0.800000,-0.800000,-0.796148,-0.878414,-0.796148,-1.032228,-0.765552,-1.177117,-0.705537,
-1.307515,-0.618408,-1.418408,-0.507515,-1.505537,-0.377117,-1.565552,-0.232228,-1.596148,-0.078414,-1.596148,0.078414,-1.565552,0.232228,-1.505537,0.377117,-1.418408,0.507515,-1.307515,0.618408,-1.177117,0.705537,-1.032228,0.765552,-0.878414,0.796148,-0.800000,0.796148,-0.800000,0.800000,1.400000,0.800000,1.403843,0.796157,1.403843,0.796157,$1*%
%AMFreePoly2*
4,1,37,0.603843,0.796157,0.639018,0.796157,0.711114,0.766294,0.766294,0.711114,0.796157,0.639018,0.796157,0.603843,0.800000,0.600000,0.800000,-0.600000,0.796157,-0.603843,0.796157,-0.639018,0.766294,-0.711114,0.711114,-0.766294,0.639018,-0.796157,0.603843,-0.796157,0.600000,-0.800000,0.000000,-0.800000,0.000000,-0.796148,-0.078414,-0.796148,-0.232228,-0.765552,-0.377117,-0.705537,
-0.507515,-0.618408,-0.618408,-0.507515,-0.705537,-0.377117,-0.765552,-0.232228,-0.796148,-0.078414,-0.796148,0.078414,-0.765552,0.232228,-0.705537,0.377117,-0.618408,0.507515,-0.507515,0.618408,-0.377117,0.705537,-0.232228,0.765552,-0.078414,0.796148,0.000000,0.796148,0.000000,0.800000,0.600000,0.800000,0.603843,0.796157,0.603843,0.796157,$1*%
%AMFreePoly3*
4,1,37,0.000000,0.796148,0.078414,0.796148,0.232228,0.765552,0.377117,0.705537,0.507515,0.618408,0.618408,0.507515,0.705537,0.377117,0.765552,0.232228,0.796148,0.078414,0.796148,-0.078414,0.765552,-0.232228,0.705537,-0.377117,0.618408,-0.507515,0.507515,-0.618408,0.377117,-0.705537,0.232228,-0.765552,0.078414,-0.796148,0.000000,-0.796148,0.000000,-0.800000,-0.600000,-0.800000,
-0.603843,-0.796157,-0.639018,-0.796157,-0.711114,-0.766294,-0.766294,-0.711114,-0.796157,-0.639018,-0.796157,-0.603843,-0.800000,-0.600000,-0.800000,0.600000,-0.796157,0.603843,-0.796157,0.639018,-0.766294,0.711114,-0.711114,0.766294,-0.639018,0.796157,-0.603843,0.796157,-0.600000,0.800000,0.000000,0.800000,0.000000,0.796148,0.000000,0.796148,$1*%
G04 Aperture macros list end*
%ADD10C,1.700000*%
%ADD11C,4.000000*%
%ADD12C,2.200000*%
%ADD13C,3.050000*%
%ADD14C,1.850000*%
%ADD15FreePoly0,0.000000*%
%ADD16RoundRect,0.200000X-0.600000X-0.600000X0.600000X-0.600000X0.600000X0.600000X-0.600000X0.600000X0*%
%ADD17RoundRect,0.800000X-0.800000X-0.000010X0.800000X-0.000010X0.800000X0.000010X-0.800000X0.000010X0*%
%ADD18C,1.600000*%
%ADD19FreePoly1,0.000000*%
%ADD20FreePoly2,0.000000*%
%ADD21FreePoly3,0.000000*%
%ADD22RoundRect,0.250000X-0.550000X0.550000X-0.550000X-0.550000X0.550000X-0.550000X0.550000X0.550000X0*%
%ADD23R,2.000000X2.000000*%
%ADD24C,2.000000*%
%ADD25R,3.200000X2.000000*%
%ADD26R,1.700000X1.700000*%
G04 APERTURE END LIST*
D10*
%TO.C,SW34*%
X200670000Y-217000000D03*
D11*
X205750000Y-217000000D03*
D10*
X210830000Y-217000000D03*
D12*
X208290000Y-211920000D03*
X201940000Y-214460000D03*
%TD*%
D10*
%TO.C,SW47*%
X186440000Y-236000000D03*
D11*
X191520000Y-236000000D03*
D10*
X196600000Y-236000000D03*
D12*
X194060000Y-230920000D03*
X187710000Y-233460000D03*
%TD*%
D10*
%TO.C,SW6*%
X209920000Y-170000000D03*
D11*
X215000000Y-170000000D03*
D10*
X220080000Y-170000000D03*
D12*
X217540000Y-164920000D03*
X211190000Y-167460000D03*
%TD*%
D13*
%TO.C,SW57*%
X119900000Y-248000000D03*
D11*
X119900000Y-263240000D03*
D10*
X126720000Y-255000000D03*
D11*
X131800000Y-255000000D03*
D10*
X136880000Y-255000000D03*
D13*
X143700000Y-248000000D03*
D11*
X143700000Y-263240000D03*
D12*
X134340000Y-249920000D03*
X127990000Y-252460000D03*
%TD*%
D10*
%TO.C,SW80*%
X443420000Y-273750000D03*
D11*
X448500000Y-273750000D03*
D10*
X453580000Y-273750000D03*
D12*
X451040000Y-268670000D03*
X444690000Y-271210000D03*
%TD*%
D10*
%TO.C,SW21*%
X209920000Y-198000000D03*
D11*
X215000000Y-198000000D03*
D10*
X220080000Y-198000000D03*
D12*
X217540000Y-192920000D03*
X211190000Y-195460000D03*
%TD*%
D13*
%TO.C,SW56*%
X363000000Y-229042500D03*
D11*
X363000000Y-244282500D03*
D10*
X369820000Y-236042500D03*
D11*
X374900000Y-236042500D03*
D10*
X379980000Y-236042500D03*
D13*
X386800000Y-229042500D03*
D11*
X386800000Y-244282500D03*
D12*
X377440000Y-230962500D03*
X371090000Y-233502500D03*
%TD*%
D10*
%TO.C,SW10*%
X285920000Y-170000000D03*
D11*
X291000000Y-170000000D03*
D10*
X296080000Y-170000000D03*
D12*
X293540000Y-164920000D03*
X287190000Y-167460000D03*
%TD*%
D10*
%TO.C,SW18*%
X152920000Y-198000000D03*
D11*
X158000000Y-198000000D03*
D10*
X163080000Y-198000000D03*
D12*
X160540000Y-192920000D03*
X154190000Y-195460000D03*
%TD*%
D10*
%TO.C,SW63*%
X252920000Y-255007500D03*
D11*
X258000000Y-255007500D03*
D10*
X263080000Y-255007500D03*
D12*
X260540000Y-249927500D03*
X254190000Y-252467500D03*
%TD*%
D10*
%TO.C,SW58*%
X157720000Y-255000000D03*
D11*
X162800000Y-255000000D03*
D10*
X167880000Y-255000000D03*
D12*
X165340000Y-249920000D03*
X158990000Y-252460000D03*
%TD*%
D10*
%TO.C,SW44*%
X121920000Y-236000000D03*
D11*
X127000000Y-236000000D03*
D10*
X132080000Y-236000000D03*
D12*
X129540000Y-230920000D03*
X123190000Y-233460000D03*
%TD*%
D10*
%TO.C,SW4*%
X171920000Y-170000000D03*
D11*
X177000000Y-170000000D03*
D10*
X182080000Y-170000000D03*
D12*
X179540000Y-164920000D03*
X173190000Y-167460000D03*
%TD*%
D10*
%TO.C,SW78*%
X405340000Y-273750000D03*
D11*
X410420000Y-273750000D03*
D10*
X415500000Y-273750000D03*
D12*
X412960000Y-268670000D03*
X406610000Y-271210000D03*
%TD*%
D10*
%TO.C,SW52*%
X281680000Y-236000000D03*
D11*
X286760000Y-236000000D03*
D10*
X291840000Y-236000000D03*
D12*
X289300000Y-230920000D03*
X282950000Y-233460000D03*
%TD*%
D10*
%TO.C,SW42*%
X352670000Y-217000000D03*
D11*
X357750000Y-217000000D03*
D10*
X362830000Y-217000000D03*
D12*
X360290000Y-211920000D03*
X353940000Y-214460000D03*
%TD*%
D10*
%TO.C,SW5*%
X190920000Y-170000000D03*
D11*
X196000000Y-170000000D03*
D10*
X201080000Y-170000000D03*
D12*
X198540000Y-164920000D03*
X192190000Y-167460000D03*
%TD*%
D10*
%TO.C,SW38*%
X276670000Y-217000000D03*
D11*
X281750000Y-217000000D03*
D10*
X286830000Y-217000000D03*
D12*
X284290000Y-211920000D03*
X277940000Y-214460000D03*
%TD*%
D13*
%TO.C,SW73*%
X191250000Y-267000000D03*
D11*
X191250000Y-282240000D03*
D10*
X236170000Y-274000000D03*
D11*
X241250000Y-274000000D03*
D10*
X246330000Y-274000000D03*
D13*
X291250000Y-267000000D03*
D11*
X291250000Y-282240000D03*
D12*
X243790000Y-268920000D03*
X237440000Y-271460000D03*
%TD*%
D10*
%TO.C,SW66*%
X310120000Y-255007500D03*
D11*
X315200000Y-255007500D03*
D10*
X320280000Y-255007500D03*
D12*
X317740000Y-249927500D03*
X311390000Y-252467500D03*
%TD*%
D10*
%TO.C,SW25*%
X285920000Y-198000000D03*
D11*
X291000000Y-198000000D03*
D10*
X296080000Y-198000000D03*
D12*
X293540000Y-192920000D03*
X287190000Y-195460000D03*
%TD*%
D10*
%TO.C,SW8*%
X247920000Y-170000000D03*
D11*
X253000000Y-170000000D03*
D10*
X258080000Y-170000000D03*
D12*
X255540000Y-164920000D03*
X249190000Y-167460000D03*
%TD*%
D10*
%TO.C,SW26*%
X304920000Y-198000000D03*
D11*
X310000000Y-198000000D03*
D10*
X315080000Y-198000000D03*
D12*
X312540000Y-192920000D03*
X306190000Y-195460000D03*
%TD*%
D10*
%TO.C,SW46*%
X167340000Y-236000000D03*
D11*
X172420000Y-236000000D03*
D10*
X177500000Y-236000000D03*
D12*
X174960000Y-230920000D03*
X168610000Y-233460000D03*
%TD*%
D10*
%TO.C,SW53*%
X300730000Y-236050000D03*
D11*
X305810000Y-236050000D03*
D10*
X310890000Y-236050000D03*
D12*
X308350000Y-230970000D03*
X302000000Y-233510000D03*
%TD*%
D10*
%TO.C,SW16*%
X114920000Y-198000000D03*
D11*
X120000000Y-198000000D03*
D10*
X125080000Y-198000000D03*
D12*
X122540000Y-192920000D03*
X116190000Y-195460000D03*
%TD*%
%TO.C,A1*%
X459385000Y-148870000D03*
D14*
X459685000Y-151900000D03*
X464535000Y-151900000D03*
D12*
X464835000Y-148870000D03*
D15*
X452420000Y-148740000D03*
D16*
X453220000Y-148740000D03*
D17*
X452420000Y-151280000D03*
D18*
X453220000Y-151280000D03*
D19*
X452420000Y-153820000D03*
D20*
X453220000Y-153820000D03*
D17*
X452420000Y-156360000D03*
D18*
X453220000Y-156360000D03*
D17*
X452420000Y-158900000D03*
D18*
X453220000Y-158900000D03*
D17*
X452420000Y-161440000D03*
D18*
X453220000Y-161440000D03*
D17*
X452420000Y-163980000D03*
D18*
X453220000Y-163980000D03*
D19*
X452420000Y-166520000D03*
D20*
X453220000Y-166520000D03*
D17*
X452420000Y-169060000D03*
D18*
X453220000Y-169060000D03*
D17*
X452420000Y-171600000D03*
D18*
X453220000Y-171600000D03*
D17*
X452420000Y-174140000D03*
D18*
X453220000Y-174140000D03*
D17*
X452420000Y-176680000D03*
D18*
X453220000Y-176680000D03*
D19*
X452420000Y-179220000D03*
D20*
X453220000Y-179220000D03*
D17*
X452420000Y-181760000D03*
D18*
X453220000Y-181760000D03*
D17*
X452420000Y-184300000D03*
D18*
X453220000Y-184300000D03*
D17*
X452420000Y-186840000D03*
D18*
X453220000Y-186840000D03*
D17*
X452420000Y-189380000D03*
D18*
X453220000Y-189380000D03*
D19*
X452420000Y-191920000D03*
D20*
X453220000Y-191920000D03*
D17*
X452420000Y-194460000D03*
D18*
X453220000Y-194460000D03*
D17*
X452420000Y-197000000D03*
D18*
X453220000Y-197000000D03*
X471000000Y-197000000D03*
D17*
X471800000Y-197000000D03*
D18*
X471000000Y-194460000D03*
D17*
X471800000Y-194460000D03*
D21*
X471000000Y-191920000D03*
D15*
X471800000Y-191920000D03*
D18*
X471000000Y-189380000D03*
D17*
X471800000Y-189380000D03*
D18*
X471000000Y-186840000D03*
D17*
X471800000Y-186840000D03*
D18*
X471000000Y-184300000D03*
D17*
X471800000Y-184300000D03*
D18*
X471000000Y-181760000D03*
D17*
X471800000Y-181760000D03*
D21*
X471000000Y-179220000D03*
D15*
X471800000Y-179220000D03*
D18*
X471000000Y-176680000D03*
D17*
X471800000Y-176680000D03*
D18*
X471000000Y-174140000D03*
D17*
X471800000Y-174140000D03*
D18*
X471000000Y-171600000D03*
D17*
X471800000Y-171600000D03*
D18*
X471000000Y-169060000D03*
D17*
X471800000Y-169060000D03*
D21*
X471000000Y-166520000D03*
D15*
X471800000Y-166520000D03*
D18*
X471000000Y-163980000D03*
D17*
X471800000Y-163980000D03*
D18*
X471000000Y-161440000D03*
D17*
X471800000Y-161440000D03*
D18*
X471000000Y-158900000D03*
D17*
X471800000Y-158900000D03*
D18*
X471000000Y-156360000D03*
D17*
X471800000Y-156360000D03*
D21*
X471000000Y-153820000D03*
D15*
X471800000Y-153820000D03*
D18*
X471000000Y-151280000D03*
D17*
X471800000Y-151280000D03*
D18*
X471000000Y-148740000D03*
D17*
X471800000Y-148740000D03*
%TD*%
D10*
%TO.C,SW51*%
X262640000Y-236050000D03*
D11*
X267720000Y-236050000D03*
D10*
X272800000Y-236050000D03*
D12*
X270260000Y-230970000D03*
X263910000Y-233510000D03*
%TD*%
D10*
%TO.C,SW31*%
X143500000Y-217000000D03*
D11*
X148580000Y-217000000D03*
D10*
X153660000Y-217000000D03*
D12*
X151120000Y-211920000D03*
X144770000Y-214460000D03*
%TD*%
D10*
%TO.C,SW33*%
X181670000Y-217000000D03*
D11*
X186750000Y-217000000D03*
D10*
X191830000Y-217000000D03*
D12*
X189290000Y-211920000D03*
X182940000Y-214460000D03*
%TD*%
D10*
%TO.C,SW2*%
X133920000Y-170000000D03*
D11*
X139000000Y-170000000D03*
D10*
X144080000Y-170000000D03*
D12*
X141540000Y-164920000D03*
X135190000Y-167460000D03*
%TD*%
D10*
%TO.C,SW9*%
X266920000Y-170000000D03*
D11*
X272000000Y-170000000D03*
D10*
X277080000Y-170000000D03*
D12*
X274540000Y-164920000D03*
X268190000Y-167460000D03*
%TD*%
D10*
%TO.C,SW79*%
X424420000Y-273750000D03*
D11*
X429500000Y-273750000D03*
D10*
X434580000Y-273750000D03*
D12*
X432040000Y-268670000D03*
X425690000Y-271210000D03*
%TD*%
D10*
%TO.C,SW45*%
X148170000Y-236000000D03*
D11*
X153250000Y-236000000D03*
D10*
X158330000Y-236000000D03*
D12*
X155790000Y-230920000D03*
X149440000Y-233460000D03*
%TD*%
D10*
%TO.C,SW48*%
X205540000Y-236000000D03*
D11*
X210620000Y-236000000D03*
D10*
X215700000Y-236000000D03*
D12*
X213160000Y-230920000D03*
X206810000Y-233460000D03*
%TD*%
D10*
%TO.C,SW54*%
X319740000Y-236050000D03*
D11*
X324820000Y-236050000D03*
D10*
X329900000Y-236050000D03*
D12*
X327360000Y-230970000D03*
X321010000Y-233510000D03*
%TD*%
D10*
%TO.C,SW41*%
X333670000Y-217000000D03*
D11*
X338750000Y-217000000D03*
D10*
X343830000Y-217000000D03*
D12*
X341290000Y-211920000D03*
X334940000Y-214460000D03*
%TD*%
D10*
%TO.C,SW76*%
X355170000Y-274000000D03*
D11*
X360250000Y-274000000D03*
D10*
X365330000Y-274000000D03*
D12*
X362790000Y-268920000D03*
X356440000Y-271460000D03*
%TD*%
D10*
%TO.C,SW49*%
X224590000Y-236050000D03*
D11*
X229670000Y-236050000D03*
D10*
X234750000Y-236050000D03*
D12*
X232210000Y-230970000D03*
X225860000Y-233510000D03*
%TD*%
D10*
%TO.C,SW67*%
X329120000Y-255007500D03*
D11*
X334200000Y-255007500D03*
D10*
X339280000Y-255007500D03*
D12*
X336740000Y-249927500D03*
X330390000Y-252467500D03*
%TD*%
D10*
%TO.C,SW55*%
X338810000Y-236050000D03*
D11*
X343890000Y-236050000D03*
D10*
X348970000Y-236050000D03*
D12*
X346430000Y-230970000D03*
X340080000Y-233510000D03*
%TD*%
D10*
%TO.C,SW74*%
X307670000Y-274000000D03*
D11*
X312750000Y-274000000D03*
D10*
X317830000Y-274000000D03*
D12*
X315290000Y-268920000D03*
X308940000Y-271460000D03*
%TD*%
D10*
%TO.C,SW70*%
X117170000Y-274000000D03*
D11*
X122250000Y-274000000D03*
D10*
X127330000Y-274000000D03*
D12*
X124790000Y-268920000D03*
X118440000Y-271460000D03*
%TD*%
D10*
%TO.C,SW60*%
X195720000Y-255000000D03*
D11*
X200800000Y-255000000D03*
D10*
X205880000Y-255000000D03*
D12*
X203340000Y-249920000D03*
X196990000Y-252460000D03*
%TD*%
D10*
%TO.C,SW75*%
X331420000Y-274000000D03*
D11*
X336500000Y-274000000D03*
D10*
X341580000Y-274000000D03*
D12*
X339040000Y-268920000D03*
X332690000Y-271460000D03*
%TD*%
D10*
%TO.C,SW23*%
X247920000Y-198000000D03*
D11*
X253000000Y-198000000D03*
D10*
X258080000Y-198000000D03*
D12*
X255540000Y-192920000D03*
X249190000Y-195460000D03*
%TD*%
D22*
%TO.C,U1*%
X443780000Y-189050000D03*
D18*
X441240000Y-189050000D03*
X438700000Y-189050000D03*
X436160000Y-189050000D03*
X433620000Y-189050000D03*
X431080000Y-189050000D03*
X428540000Y-189050000D03*
X426000000Y-189050000D03*
X423460000Y-189050000D03*
X420920000Y-189050000D03*
X418380000Y-189050000D03*
X415840000Y-189050000D03*
X413300000Y-189050000D03*
X410760000Y-189050000D03*
X410760000Y-196670000D03*
X413300000Y-196670000D03*
X415840000Y-196670000D03*
X418380000Y-196670000D03*
X420920000Y-196670000D03*
X423460000Y-196670000D03*
X426000000Y-196670000D03*
X428540000Y-196670000D03*
X431080000Y-196670000D03*
X433620000Y-196670000D03*
X436160000Y-196670000D03*
X438700000Y-196670000D03*
X441240000Y-196670000D03*
X443780000Y-196670000D03*
%TD*%
D13*
%TO.C,SW68*%
X358100000Y-248000000D03*
D11*
X358100000Y-263240000D03*
D10*
X364920000Y-255000000D03*
D11*
X370000000Y-255000000D03*
D10*
X375080000Y-255000000D03*
D13*
X381900000Y-248000000D03*
D11*
X381900000Y-263240000D03*
D12*
X372540000Y-249920000D03*
X366190000Y-252460000D03*
%TD*%
D10*
%TO.C,SW50*%
X243640000Y-236000000D03*
D11*
X248720000Y-236000000D03*
D10*
X253800000Y-236000000D03*
D12*
X251260000Y-230920000D03*
X244910000Y-233460000D03*
%TD*%
D10*
%TO.C,SW72*%
X164670000Y-274000000D03*
D11*
X169750000Y-274000000D03*
D10*
X174830000Y-274000000D03*
D12*
X172290000Y-268920000D03*
X165940000Y-271460000D03*
%TD*%
D10*
%TO.C,SW65*%
X291120000Y-255000000D03*
D11*
X296200000Y-255000000D03*
D10*
X301280000Y-255000000D03*
D12*
X298740000Y-249920000D03*
X292390000Y-252460000D03*
%TD*%
D10*
%TO.C,SW37*%
X257670000Y-217000000D03*
D11*
X262750000Y-217000000D03*
D10*
X267830000Y-217000000D03*
D12*
X265290000Y-211920000D03*
X258940000Y-214460000D03*
%TD*%
D10*
%TO.C,SW30*%
X119670000Y-217000000D03*
D11*
X124750000Y-217000000D03*
D10*
X129830000Y-217000000D03*
D12*
X127290000Y-211920000D03*
X120940000Y-214460000D03*
%TD*%
D10*
%TO.C,SW27*%
X323920000Y-198000000D03*
D11*
X329000000Y-198000000D03*
D10*
X334080000Y-198000000D03*
D12*
X331540000Y-192920000D03*
X325190000Y-195460000D03*
%TD*%
D10*
%TO.C,SW62*%
X233920000Y-255000000D03*
D11*
X239000000Y-255000000D03*
D10*
X244080000Y-255000000D03*
D12*
X241540000Y-249920000D03*
X235190000Y-252460000D03*
%TD*%
D10*
%TO.C,SW32*%
X162670000Y-217000000D03*
D11*
X167750000Y-217000000D03*
D10*
X172830000Y-217000000D03*
D12*
X170290000Y-211920000D03*
X163940000Y-214460000D03*
%TD*%
D10*
%TO.C,SW61*%
X214720000Y-255000000D03*
D11*
X219800000Y-255000000D03*
D10*
X224880000Y-255000000D03*
D12*
X222340000Y-249920000D03*
X215990000Y-252460000D03*
%TD*%
D10*
%TO.C,SW43*%
X376420000Y-217000000D03*
D11*
X381500000Y-217000000D03*
D10*
X386580000Y-217000000D03*
D12*
X384040000Y-211920000D03*
X377690000Y-214460000D03*
%TD*%
D10*
%TO.C,SW17*%
X133920000Y-198000000D03*
D11*
X139000000Y-198000000D03*
D10*
X144080000Y-198000000D03*
D12*
X141540000Y-192920000D03*
X135190000Y-195460000D03*
%TD*%
D23*
%TO.C,SW91*%
X428800000Y-163250000D03*
D24*
X428800000Y-168250000D03*
X428800000Y-165750000D03*
D25*
X436300000Y-160150000D03*
X436300000Y-171350000D03*
D24*
X443300000Y-168250000D03*
X443300000Y-163250000D03*
%TD*%
D10*
%TO.C,SW64*%
X272120000Y-255007500D03*
D11*
X277200000Y-255007500D03*
D10*
X282280000Y-255007500D03*
D12*
X279740000Y-249927500D03*
X273390000Y-252467500D03*
%TD*%
D10*
%TO.C,SW28*%
X342920000Y-198000000D03*
D11*
X348000000Y-198000000D03*
D10*
X353080000Y-198000000D03*
D12*
X350540000Y-192920000D03*
X344190000Y-195460000D03*
%TD*%
D10*
%TO.C,SW40*%
X314670000Y-217000000D03*
D11*
X319750000Y-217000000D03*
D10*
X324830000Y-217000000D03*
D12*
X322290000Y-211920000D03*
X315940000Y-214460000D03*
%TD*%
D10*
%TO.C,SW22*%
X228920000Y-198000000D03*
D11*
X234000000Y-198000000D03*
D10*
X239080000Y-198000000D03*
D12*
X236540000Y-192920000D03*
X230190000Y-195460000D03*
%TD*%
D10*
%TO.C,SW39*%
X295670000Y-217000000D03*
D11*
X300750000Y-217000000D03*
D10*
X305830000Y-217000000D03*
D12*
X303290000Y-211920000D03*
X296940000Y-214460000D03*
%TD*%
D10*
%TO.C,SW15*%
X381000000Y-170000000D03*
D11*
X386080000Y-170000000D03*
D10*
X391160000Y-170000000D03*
D12*
X388620000Y-164920000D03*
X382270000Y-167460000D03*
%TD*%
D10*
%TO.C,SW12*%
X323920000Y-170000000D03*
D11*
X329000000Y-170000000D03*
D10*
X334080000Y-170000000D03*
D12*
X331540000Y-164920000D03*
X325190000Y-167460000D03*
%TD*%
D10*
%TO.C,SW3*%
X152920000Y-170000000D03*
D11*
X158000000Y-170000000D03*
D10*
X163080000Y-170000000D03*
D12*
X160540000Y-164920000D03*
X154190000Y-167460000D03*
%TD*%
D10*
%TO.C,SW1*%
X114920000Y-170000000D03*
D11*
X120000000Y-170000000D03*
D10*
X125080000Y-170000000D03*
D12*
X122540000Y-164920000D03*
X116190000Y-167460000D03*
%TD*%
D26*
%TO.C,J1*%
X407240000Y-161800000D03*
D10*
X409780000Y-161800000D03*
X412320000Y-161800000D03*
X414860000Y-161800000D03*
%TD*%
%TO.C,SW24*%
X266920000Y-198000000D03*
D11*
X272000000Y-198000000D03*
D10*
X277080000Y-198000000D03*
D12*
X274540000Y-192920000D03*
X268190000Y-195460000D03*
%TD*%
D10*
%TO.C,SW20*%
X190920000Y-198000000D03*
D11*
X196000000Y-198000000D03*
D10*
X201080000Y-198000000D03*
D12*
X198540000Y-192920000D03*
X192190000Y-195460000D03*
%TD*%
D10*
%TO.C,SW69*%
X424420000Y-254750000D03*
D11*
X429500000Y-254750000D03*
D10*
X434580000Y-254750000D03*
D12*
X432040000Y-249670000D03*
X425690000Y-252210000D03*
%TD*%
D10*
%TO.C,SW71*%
X140920000Y-274000000D03*
D11*
X146000000Y-274000000D03*
D10*
X151080000Y-274000000D03*
D12*
X148540000Y-268920000D03*
X142190000Y-271460000D03*
%TD*%
D10*
%TO.C,SW19*%
X171920000Y-198000000D03*
D11*
X177000000Y-198000000D03*
D10*
X182080000Y-198000000D03*
D12*
X179540000Y-192920000D03*
X173190000Y-195460000D03*
%TD*%
D10*
%TO.C,SW13*%
X342920000Y-170000000D03*
D11*
X348000000Y-170000000D03*
D10*
X353080000Y-170000000D03*
D12*
X350540000Y-164920000D03*
X344190000Y-167460000D03*
%TD*%
D10*
%TO.C,SW35*%
X219670000Y-217000000D03*
D11*
X224750000Y-217000000D03*
D10*
X229830000Y-217000000D03*
D12*
X227290000Y-211920000D03*
X220940000Y-214460000D03*
%TD*%
D10*
%TO.C,SW77*%
X379090000Y-274000000D03*
D11*
X384170000Y-274000000D03*
D10*
X389250000Y-274000000D03*
D12*
X386710000Y-268920000D03*
X380360000Y-271460000D03*
%TD*%
D13*
%TO.C,SW29*%
X364600000Y-191000000D03*
D11*
X364600000Y-206240000D03*
D10*
X371420000Y-198000000D03*
D11*
X376500000Y-198000000D03*
D10*
X381580000Y-198000000D03*
D13*
X388400000Y-191000000D03*
D11*
X388400000Y-206240000D03*
D12*
X379040000Y-192920000D03*
X372690000Y-195460000D03*
%TD*%
D10*
%TO.C,SW59*%
X176720000Y-255000000D03*
D11*
X181800000Y-255000000D03*
D10*
X186880000Y-255000000D03*
D12*
X184340000Y-249920000D03*
X177990000Y-252460000D03*
%TD*%
D10*
%TO.C,SW7*%
X228920000Y-170000000D03*
D11*
X234000000Y-170000000D03*
D10*
X239080000Y-170000000D03*
D12*
X236540000Y-164920000D03*
X230190000Y-167460000D03*
%TD*%
D10*
%TO.C,SW11*%
X304920000Y-170000000D03*
D11*
X310000000Y-170000000D03*
D10*
X315080000Y-170000000D03*
D12*
X312540000Y-164920000D03*
X306190000Y-167460000D03*
%TD*%
D10*
%TO.C,SW36*%
X238670000Y-217000000D03*
D11*
X243750000Y-217000000D03*
D10*
X248830000Y-217000000D03*
D12*
X246290000Y-211920000D03*
X239940000Y-214460000D03*
%TD*%
D10*
%TO.C,SW14*%
X361920000Y-170000000D03*
D11*
X367000000Y-170000000D03*
D10*
X372080000Y-170000000D03*
D12*
X369540000Y-164920000D03*
X363190000Y-167460000D03*
%TD*%
D22*
%TO.C,D46*%
X163320000Y-230950000D03*
D18*
X163320000Y-238570000D03*
%TD*%
D22*
%TO.C,D45*%
X143750000Y-231000000D03*
D18*
X143750000Y-238620000D03*
%TD*%
D22*
%TO.C,D29*%
X358000000Y-193000000D03*
D18*
X358000000Y-200620000D03*
%TD*%
D22*
%TO.C,D41*%
X330000000Y-212000000D03*
D18*
X330000000Y-219620000D03*
%TD*%
D22*
%TO.C,D6*%
X206000000Y-165000000D03*
D18*
X206000000Y-172620000D03*
%TD*%
D22*
%TO.C,D35*%
X216000000Y-212000000D03*
D18*
X216000000Y-219620000D03*
%TD*%
D22*
%TO.C,D30*%
X111250000Y-212000000D03*
D18*
X111250000Y-219620000D03*
%TD*%
D22*
%TO.C,D2*%
X130000000Y-165000000D03*
D18*
X130000000Y-172620000D03*
%TD*%
D22*
%TO.C,D3*%
X149000000Y-165000000D03*
D18*
X149000000Y-172620000D03*
%TD*%
D22*
%TO.C,D69*%
X419750000Y-249750000D03*
D18*
X419750000Y-257370000D03*
%TD*%
D22*
%TO.C,D32*%
X159000000Y-212000000D03*
D18*
X159000000Y-219620000D03*
%TD*%
D22*
%TO.C,D38*%
X273000000Y-212000000D03*
D18*
X273000000Y-219620000D03*
%TD*%
D22*
%TO.C,D26*%
X301000000Y-193000000D03*
D18*
X301000000Y-200620000D03*
%TD*%
D22*
%TO.C,D37*%
X254000000Y-212000000D03*
D18*
X254000000Y-219620000D03*
%TD*%
D22*
%TO.C,D21*%
X206000000Y-193000000D03*
D18*
X206000000Y-200620000D03*
%TD*%
D22*
%TO.C,D61*%
X210900000Y-249965000D03*
D18*
X210900000Y-257585000D03*
%TD*%
D22*
%TO.C,D4*%
X168000000Y-165000000D03*
D18*
X168000000Y-172620000D03*
%TD*%
D22*
%TO.C,D22*%
X225000000Y-193000000D03*
D18*
X225000000Y-200620000D03*
%TD*%
D22*
%TO.C,D17*%
X129000000Y-193000000D03*
D18*
X129000000Y-200620000D03*
%TD*%
D22*
%TO.C,D36*%
X235000000Y-212000000D03*
D18*
X235000000Y-219620000D03*
%TD*%
D22*
%TO.C,D74*%
X300960000Y-268920000D03*
D18*
X300960000Y-276540000D03*
%TD*%
D22*
%TO.C,D15*%
X377000000Y-165000000D03*
D18*
X377000000Y-172620000D03*
%TD*%
D22*
%TO.C,D8*%
X244000000Y-165000000D03*
D18*
X244000000Y-172620000D03*
%TD*%
D22*
%TO.C,D12*%
X320000000Y-165000000D03*
D18*
X320000000Y-172620000D03*
%TD*%
D22*
%TO.C,D78*%
X401000000Y-268750000D03*
D18*
X401000000Y-276370000D03*
%TD*%
D22*
%TO.C,D47*%
X181270000Y-230950000D03*
D18*
X181270000Y-238570000D03*
%TD*%
D22*
%TO.C,D27*%
X320000000Y-193000000D03*
D18*
X320000000Y-200620000D03*
%TD*%
D22*
%TO.C,D60*%
X191600000Y-249980000D03*
D18*
X191600000Y-257600000D03*
%TD*%
D22*
%TO.C,D62*%
X228650000Y-249965000D03*
D18*
X228650000Y-257585000D03*
%TD*%
D22*
%TO.C,D50*%
X239270000Y-230950000D03*
D18*
X239270000Y-238570000D03*
%TD*%
D22*
%TO.C,D63*%
X248650000Y-249965000D03*
D18*
X248650000Y-257585000D03*
%TD*%
D22*
%TO.C,D58*%
X152600000Y-250000000D03*
D18*
X152600000Y-257620000D03*
%TD*%
D22*
%TO.C,D75*%
X325250000Y-269000000D03*
D18*
X325250000Y-276620000D03*
%TD*%
D22*
%TO.C,D28*%
X339000000Y-193000000D03*
D18*
X339000000Y-200620000D03*
%TD*%
D22*
%TO.C,D42*%
X349000000Y-212000000D03*
D18*
X349000000Y-219620000D03*
%TD*%
D22*
%TO.C,D7*%
X225000000Y-165000000D03*
D18*
X225000000Y-172620000D03*
%TD*%
D22*
%TO.C,D57*%
X110400000Y-250000000D03*
D18*
X110400000Y-257620000D03*
%TD*%
D22*
%TO.C,D71*%
X134250000Y-268920000D03*
D18*
X134250000Y-276540000D03*
%TD*%
D22*
%TO.C,D14*%
X358000000Y-165000000D03*
D18*
X358000000Y-172620000D03*
%TD*%
D22*
%TO.C,D43*%
X368000000Y-212000000D03*
D18*
X368000000Y-219620000D03*
%TD*%
D22*
%TO.C,D25*%
X282000000Y-193000000D03*
D18*
X282000000Y-200620000D03*
%TD*%
D22*
%TO.C,D67*%
X324650000Y-249965000D03*
D18*
X324650000Y-257585000D03*
%TD*%
D22*
%TO.C,D51*%
X258270000Y-230950000D03*
D18*
X258270000Y-238570000D03*
%TD*%
D22*
%TO.C,D52*%
X277270000Y-230950000D03*
D18*
X277270000Y-238570000D03*
%TD*%
D22*
%TO.C,D24*%
X262000000Y-193000000D03*
D18*
X262000000Y-200620000D03*
%TD*%
D22*
%TO.C,D80*%
X439500000Y-268750000D03*
D18*
X439500000Y-276370000D03*
%TD*%
D22*
%TO.C,D56*%
X353270000Y-230950000D03*
D18*
X353270000Y-238570000D03*
%TD*%
D22*
%TO.C,D68*%
X343650000Y-249965000D03*
D18*
X343650000Y-257585000D03*
%TD*%
D22*
%TO.C,D18*%
X149000000Y-193000000D03*
D18*
X149000000Y-200620000D03*
%TD*%
D22*
%TO.C,D48*%
X201270000Y-230950000D03*
D18*
X201270000Y-238570000D03*
%TD*%
D22*
%TO.C,D13*%
X339000000Y-165000000D03*
D18*
X339000000Y-172620000D03*
%TD*%
D22*
%TO.C,D73*%
X182000000Y-269130000D03*
D18*
X182000000Y-276750000D03*
%TD*%
D22*
%TO.C,D72*%
X157750000Y-269000000D03*
D18*
X157750000Y-276620000D03*
%TD*%
D22*
%TO.C,D59*%
X172600000Y-250000000D03*
D18*
X172600000Y-257620000D03*
%TD*%
D22*
%TO.C,D11*%
X301000000Y-165000000D03*
D18*
X301000000Y-172620000D03*
%TD*%
D22*
%TO.C,D19*%
X168000000Y-193000000D03*
D18*
X168000000Y-200620000D03*
%TD*%
D22*
%TO.C,D79*%
X420250000Y-268750000D03*
D18*
X420250000Y-276370000D03*
%TD*%
D22*
%TO.C,D49*%
X220270000Y-230950000D03*
D18*
X220270000Y-238570000D03*
%TD*%
D22*
%TO.C,D9*%
X263000000Y-165000000D03*
D18*
X263000000Y-172620000D03*
%TD*%
D22*
%TO.C,D65*%
X286650000Y-249965000D03*
D18*
X286650000Y-257585000D03*
%TD*%
D22*
%TO.C,D40*%
X311000000Y-212000000D03*
D18*
X311000000Y-219620000D03*
%TD*%
D22*
%TO.C,D31*%
X139580000Y-212000000D03*
D18*
X139580000Y-219620000D03*
%TD*%
D22*
%TO.C,D1*%
X111000000Y-165000000D03*
D18*
X111000000Y-172620000D03*
%TD*%
D22*
%TO.C,D23*%
X243000000Y-193000000D03*
D18*
X243000000Y-200620000D03*
%TD*%
D22*
%TO.C,D55*%
X334270000Y-230950000D03*
D18*
X334270000Y-238570000D03*
%TD*%
D22*
%TO.C,D76*%
X348250000Y-269000000D03*
D18*
X348250000Y-276620000D03*
%TD*%
D22*
%TO.C,D33*%
X178000000Y-212000000D03*
D18*
X178000000Y-219620000D03*
%TD*%
D22*
%TO.C,D66*%
X305650000Y-249965000D03*
D18*
X305650000Y-257585000D03*
%TD*%
D22*
%TO.C,D34*%
X197000000Y-212000000D03*
D18*
X197000000Y-219620000D03*
%TD*%
D22*
%TO.C,D10*%
X282000000Y-165000000D03*
D18*
X282000000Y-172620000D03*
%TD*%
D22*
%TO.C,D64*%
X267650000Y-249965000D03*
D18*
X267650000Y-257585000D03*
%TD*%
D22*
%TO.C,D16*%
X110000000Y-193000000D03*
D18*
X110000000Y-200620000D03*
%TD*%
D22*
%TO.C,D77*%
X372750000Y-269000000D03*
D18*
X372750000Y-276620000D03*
%TD*%
D22*
%TO.C,D20*%
X187000000Y-193000000D03*
D18*
X187000000Y-200620000D03*
%TD*%
D22*
%TO.C,D5*%
X187000000Y-165000000D03*
D18*
X187000000Y-172620000D03*
%TD*%
D22*
%TO.C,D44*%
X110500000Y-231000000D03*
D18*
X110500000Y-238620000D03*
%TD*%
D22*
%TO.C,D53*%
X296270000Y-230950000D03*
D18*
X296270000Y-238570000D03*
%TD*%
D22*
%TO.C,D39*%
X292000000Y-212000000D03*
D18*
X292000000Y-219620000D03*
%TD*%
D22*
%TO.C,D70*%
X110500000Y-269000000D03*
D18*
X110500000Y-276620000D03*
%TD*%
D22*
%TO.C,D54*%
X315270000Y-230950000D03*
D18*
X315270000Y-238570000D03*
%TD*%
M02*
