%TF.GenerationSoftware,KiCad,Pcbnew,9.0.2*%
%TF.CreationDate,2025-06-29T16:27:35+05:30*%
%TF.ProjectId,Mechatron Schematic,4d656368-6174-4726-9f6e-20536368656d,rev?*%
%TF.SameCoordinates,Original*%
%TF.FileFunction,Copper,L1,Top*%
%TF.FilePolarity,Positive*%
%FSLAX46Y46*%
G04 Gerber Fmt 4.6, Leading zero omitted, Abs format (unit mm)*
G04 Created by KiCad (PCBNEW 9.0.2) date 2025-06-29 16:27:35*
%MOMM*%
%LPD*%
G01*
G04 APERTURE LIST*
G04 Aperture macros list*
%AMRoundRect*
0 Rectangle with rounded corners*
0 $1 Rounding radius*
0 $2 $3 $4 $5 $6 $7 $8 $9 X,Y pos of 4 corners*
0 Add a 4 corners polygon primitive as box body*
4,1,4,$2,$3,$4,$5,$6,$7,$8,$9,$2,$3,0*
0 Add four circle primitives for the rounded corners*
1,1,$1+$1,$2,$3*
1,1,$1+$1,$4,$5*
1,1,$1+$1,$6,$7*
1,1,$1+$1,$8,$9*
0 Add four rect primitives between the rounded corners*
20,1,$1+$1,$2,$3,$4,$5,0*
20,1,$1+$1,$4,$5,$6,$7,0*
20,1,$1+$1,$6,$7,$8,$9,0*
20,1,$1+$1,$8,$9,$2,$3,0*%
%AMFreePoly0*
4,1,37,0.800000,0.796148,0.878414,0.796148,1.032228,0.765552,1.177117,0.705537,1.307515,0.618408,1.418408,0.507515,1.505537,0.377117,1.565552,0.232228,1.596148,0.078414,1.596148,-0.078414,1.565552,-0.232228,1.505537,-0.377117,1.418408,-0.507515,1.307515,-0.618408,1.177117,-0.705537,1.032228,-0.765552,0.878414,-0.796148,0.800000,-0.796148,0.800000,-0.800000,-1.400000,-0.800000,
-1.403843,-0.796157,-1.439018,-0.796157,-1.511114,-0.766294,-1.566294,-0.711114,-1.596157,-0.639018,-1.596157,-0.603843,-1.600000,-0.600000,-1.600000,0.600000,-1.596157,0.603843,-1.596157,0.639018,-1.566294,0.711114,-1.511114,0.766294,-1.439018,0.796157,-1.403843,0.796157,-1.400000,0.800000,0.800000,0.800000,0.800000,0.796148,0.800000,0.796148,$1*%
%AMFreePoly1*
4,1,37,1.403843,0.796157,1.439018,0.796157,1.511114,0.766294,1.566294,0.711114,1.596157,0.639018,1.596157,0.603843,1.600000,0.600000,1.600000,-0.600000,1.596157,-0.603843,1.596157,-0.639018,1.566294,-0.711114,1.511114,-0.766294,1.439018,-0.796157,1.403843,-0.796157,1.400000,-0.800000,-0.800000,-0.800000,-0.800000,-0.796148,-0.878414,-0.796148,-1.032228,-0.765552,-1.177117,-0.705537,
-1.307515,-0.618408,-1.418408,-0.507515,-1.505537,-0.377117,-1.565552,-0.232228,-1.596148,-0.078414,-1.596148,0.078414,-1.565552,0.232228,-1.505537,0.377117,-1.418408,0.507515,-1.307515,0.618408,-1.177117,0.705537,-1.032228,0.765552,-0.878414,0.796148,-0.800000,0.796148,-0.800000,0.800000,1.400000,0.800000,1.403843,0.796157,1.403843,0.796157,$1*%
%AMFreePoly2*
4,1,37,0.603843,0.796157,0.639018,0.796157,0.711114,0.766294,0.766294,0.711114,0.796157,0.639018,0.796157,0.603843,0.800000,0.600000,0.800000,-0.600000,0.796157,-0.603843,0.796157,-0.639018,0.766294,-0.711114,0.711114,-0.766294,0.639018,-0.796157,0.603843,-0.796157,0.600000,-0.800000,0.000000,-0.800000,0.000000,-0.796148,-0.078414,-0.796148,-0.232228,-0.765552,-0.377117,-0.705537,
-0.507515,-0.618408,-0.618408,-0.507515,-0.705537,-0.377117,-0.765552,-0.232228,-0.796148,-0.078414,-0.796148,0.078414,-0.765552,0.232228,-0.705537,0.377117,-0.618408,0.507515,-0.507515,0.618408,-0.377117,0.705537,-0.232228,0.765552,-0.078414,0.796148,0.000000,0.796148,0.000000,0.800000,0.600000,0.800000,0.603843,0.796157,0.603843,0.796157,$1*%
%AMFreePoly3*
4,1,37,0.000000,0.796148,0.078414,0.796148,0.232228,0.765552,0.377117,0.705537,0.507515,0.618408,0.618408,0.507515,0.705537,0.377117,0.765552,0.232228,0.796148,0.078414,0.796148,-0.078414,0.765552,-0.232228,0.705537,-0.377117,0.618408,-0.507515,0.507515,-0.618408,0.377117,-0.705537,0.232228,-0.765552,0.078414,-0.796148,0.000000,-0.796148,0.000000,-0.800000,-0.600000,-0.800000,
-0.603843,-0.796157,-0.639018,-0.796157,-0.711114,-0.766294,-0.766294,-0.711114,-0.796157,-0.639018,-0.796157,-0.603843,-0.800000,-0.600000,-0.800000,0.600000,-0.796157,0.603843,-0.796157,0.639018,-0.766294,0.711114,-0.711114,0.766294,-0.639018,0.796157,-0.603843,0.796157,-0.600000,0.800000,0.000000,0.800000,0.000000,0.796148,0.000000,0.796148,$1*%
G04 Aperture macros list end*
%TA.AperFunction,ComponentPad*%
%ADD10C,2.200000*%
%TD*%
%TA.AperFunction,SMDPad,CuDef*%
%ADD11FreePoly0,0.000000*%
%TD*%
%TA.AperFunction,ComponentPad*%
%ADD12RoundRect,0.200000X-0.600000X-0.600000X0.600000X-0.600000X0.600000X0.600000X-0.600000X0.600000X0*%
%TD*%
%TA.AperFunction,SMDPad,CuDef*%
%ADD13RoundRect,0.800000X-0.800000X-0.000010X0.800000X-0.000010X0.800000X0.000010X-0.800000X0.000010X0*%
%TD*%
%TA.AperFunction,ComponentPad*%
%ADD14C,1.600000*%
%TD*%
%TA.AperFunction,SMDPad,CuDef*%
%ADD15FreePoly1,0.000000*%
%TD*%
%TA.AperFunction,ComponentPad*%
%ADD16FreePoly2,0.000000*%
%TD*%
%TA.AperFunction,ComponentPad*%
%ADD17FreePoly3,0.000000*%
%TD*%
%TA.AperFunction,ComponentPad*%
%ADD18RoundRect,0.250000X-0.550000X0.550000X-0.550000X-0.550000X0.550000X-0.550000X0.550000X0.550000X0*%
%TD*%
%TA.AperFunction,ComponentPad*%
%ADD19R,2.000000X2.000000*%
%TD*%
%TA.AperFunction,ComponentPad*%
%ADD20C,2.000000*%
%TD*%
%TA.AperFunction,ComponentPad*%
%ADD21R,3.200000X2.000000*%
%TD*%
%TA.AperFunction,ComponentPad*%
%ADD22R,1.700000X1.700000*%
%TD*%
%TA.AperFunction,ComponentPad*%
%ADD23C,1.700000*%
%TD*%
%TA.AperFunction,ViaPad*%
%ADD24C,0.600000*%
%TD*%
%TA.AperFunction,Conductor*%
%ADD25C,0.200000*%
%TD*%
G04 APERTURE END LIST*
D10*
%TO.P,SW34,1,1*%
%TO.N,Net-(D34-K)*%
X208290000Y-211920000D03*
%TO.P,SW34,2,2*%
%TO.N,COL4*%
X201940000Y-214460000D03*
%TD*%
%TO.P,SW47,1,1*%
%TO.N,Net-(D47-K)*%
X194060000Y-230920000D03*
%TO.P,SW47,2,2*%
%TO.N,COL3*%
X187710000Y-233460000D03*
%TD*%
%TO.P,SW6,1,1*%
%TO.N,Net-(D6-K)*%
X217540000Y-164920000D03*
%TO.P,SW6,2,2*%
%TO.N,COL5*%
X211190000Y-167460000D03*
%TD*%
%TO.P,SW57,1,1*%
%TO.N,Net-(D57-K)*%
X134340000Y-249920000D03*
%TO.P,SW57,2,2*%
%TO.N,COL0*%
X127990000Y-252460000D03*
%TD*%
%TO.P,SW80,1,1*%
%TO.N,Net-(D80-K)*%
X451040000Y-268670000D03*
%TO.P,SW80,2,2*%
%TO.N,COL12*%
X444690000Y-271210000D03*
%TD*%
%TO.P,SW21,1,1*%
%TO.N,Net-(D21-K)*%
X217540000Y-192920000D03*
%TO.P,SW21,2,2*%
%TO.N,COL5*%
X211190000Y-195460000D03*
%TD*%
%TO.P,SW56,1,1*%
%TO.N,Net-(D56-K)*%
X377440000Y-230962500D03*
%TO.P,SW56,2,2*%
%TO.N,COL12*%
X371090000Y-233502500D03*
%TD*%
%TO.P,SW10,1,1*%
%TO.N,Net-(D10-K)*%
X293540000Y-164920000D03*
%TO.P,SW10,2,2*%
%TO.N,COL9*%
X287190000Y-167460000D03*
%TD*%
%TO.P,SW18,1,1*%
%TO.N,Net-(D18-K)*%
X160540000Y-192920000D03*
%TO.P,SW18,2,2*%
%TO.N,COL2*%
X154190000Y-195460000D03*
%TD*%
%TO.P,SW63,1,1*%
%TO.N,Net-(D63-K)*%
X260540000Y-249927500D03*
%TO.P,SW63,2,2*%
%TO.N,COL7*%
X254190000Y-252467500D03*
%TD*%
%TO.P,SW58,1,1*%
%TO.N,Net-(D58-K)*%
X165340000Y-249920000D03*
%TO.P,SW58,2,2*%
%TO.N,COL1*%
X158990000Y-252460000D03*
%TD*%
%TO.P,SW44,1,1*%
%TO.N,Net-(D44-K)*%
X129540000Y-230920000D03*
%TO.P,SW44,2,2*%
%TO.N,COL0*%
X123190000Y-233460000D03*
%TD*%
%TO.P,SW4,1,1*%
%TO.N,Net-(D4-K)*%
X179540000Y-164920000D03*
%TO.P,SW4,2,2*%
%TO.N,COL3*%
X173190000Y-167460000D03*
%TD*%
%TO.P,SW78,1,1*%
%TO.N,Net-(D78-K)*%
X412960000Y-268670000D03*
%TO.P,SW78,2,2*%
%TO.N,COL10*%
X406610000Y-271210000D03*
%TD*%
%TO.P,SW52,1,1*%
%TO.N,Net-(D52-K)*%
X289300000Y-230920000D03*
%TO.P,SW52,2,2*%
%TO.N,COL8*%
X282950000Y-233460000D03*
%TD*%
%TO.P,SW42,1,1*%
%TO.N,Net-(D42-K)*%
X360290000Y-211920000D03*
%TO.P,SW42,2,2*%
%TO.N,COL12*%
X353940000Y-214460000D03*
%TD*%
%TO.P,SW5,1,1*%
%TO.N,Net-(D5-K)*%
X198540000Y-164920000D03*
%TO.P,SW5,2,2*%
%TO.N,COL4*%
X192190000Y-167460000D03*
%TD*%
%TO.P,SW38,1,1*%
%TO.N,Net-(D38-K)*%
X284290000Y-211920000D03*
%TO.P,SW38,2,2*%
%TO.N,COL8*%
X277940000Y-214460000D03*
%TD*%
%TO.P,SW73,1,1*%
%TO.N,Net-(D73-K)*%
X243790000Y-268920000D03*
%TO.P,SW73,2,2*%
%TO.N,COL3*%
X237440000Y-271460000D03*
%TD*%
%TO.P,SW66,1,1*%
%TO.N,Net-(D66-K)*%
X317740000Y-249927500D03*
%TO.P,SW66,2,2*%
%TO.N,COL10*%
X311390000Y-252467500D03*
%TD*%
%TO.P,SW25,1,1*%
%TO.N,Net-(D25-K)*%
X293540000Y-192920000D03*
%TO.P,SW25,2,2*%
%TO.N,COL9*%
X287190000Y-195460000D03*
%TD*%
%TO.P,SW8,1,1*%
%TO.N,Net-(D8-K)*%
X255540000Y-164920000D03*
%TO.P,SW8,2,2*%
%TO.N,COL7*%
X249190000Y-167460000D03*
%TD*%
%TO.P,SW26,1,1*%
%TO.N,Net-(D26-K)*%
X312540000Y-192920000D03*
%TO.P,SW26,2,2*%
%TO.N,COL10*%
X306190000Y-195460000D03*
%TD*%
%TO.P,SW46,1,1*%
%TO.N,Net-(D46-K)*%
X174960000Y-230920000D03*
%TO.P,SW46,2,2*%
%TO.N,COL2*%
X168610000Y-233460000D03*
%TD*%
%TO.P,SW53,1,1*%
%TO.N,Net-(D53-K)*%
X308350000Y-230970000D03*
%TO.P,SW53,2,2*%
%TO.N,COL9*%
X302000000Y-233510000D03*
%TD*%
%TO.P,SW16,1,1*%
%TO.N,Net-(D16-K)*%
X122540000Y-192920000D03*
%TO.P,SW16,2,2*%
%TO.N,COL0*%
X116190000Y-195460000D03*
%TD*%
D11*
%TO.P,A1,1,GPIO0*%
%TO.N,Net-(A1-GPIO0)*%
X452420000Y-148740000D03*
D12*
X453220000Y-148740000D03*
D13*
%TO.P,A1,2,GPIO1*%
%TO.N,Net-(A1-GPIO1)*%
X452420000Y-151280000D03*
D14*
X453220000Y-151280000D03*
D15*
%TO.P,A1,3,GND*%
%TO.N,/GND*%
X452420000Y-153820000D03*
D16*
X453220000Y-153820000D03*
D13*
%TO.P,A1,4,GPIO2*%
%TO.N,ROW0*%
X452420000Y-156360000D03*
D14*
X453220000Y-156360000D03*
D13*
%TO.P,A1,5,GPIO3*%
%TO.N,ROW1*%
X452420000Y-158900000D03*
D14*
X453220000Y-158900000D03*
D13*
%TO.P,A1,6,GPIO4*%
%TO.N,ROW2*%
X452420000Y-161440000D03*
D14*
X453220000Y-161440000D03*
D13*
%TO.P,A1,7,GPIO5*%
%TO.N,ROW3*%
X452420000Y-163980000D03*
D14*
X453220000Y-163980000D03*
D15*
%TO.P,A1,8,GND*%
%TO.N,/GND*%
X452420000Y-166520000D03*
D16*
X453220000Y-166520000D03*
D13*
%TO.P,A1,9,GPIO6*%
%TO.N,ROW4*%
X452420000Y-169060000D03*
D14*
X453220000Y-169060000D03*
D13*
%TO.P,A1,10,GPIO7*%
%TO.N,ROW5*%
X452420000Y-171600000D03*
D14*
X453220000Y-171600000D03*
D13*
%TO.P,A1,11,GPIO8*%
%TO.N,COL0*%
X452420000Y-174140000D03*
D14*
X453220000Y-174140000D03*
D13*
%TO.P,A1,12,GPIO9*%
%TO.N,COL1*%
X452420000Y-176680000D03*
D14*
X453220000Y-176680000D03*
D15*
%TO.P,A1,13,GND*%
%TO.N,/GND*%
X452420000Y-179220000D03*
D16*
X453220000Y-179220000D03*
D13*
%TO.P,A1,14,GPIO10*%
%TO.N,COL2*%
X452420000Y-181760000D03*
D14*
X453220000Y-181760000D03*
D13*
%TO.P,A1,15,GPIO11*%
%TO.N,COL3*%
X452420000Y-184300000D03*
D14*
X453220000Y-184300000D03*
D13*
%TO.P,A1,16,GPIO12*%
%TO.N,COL4*%
X452420000Y-186840000D03*
D14*
X453220000Y-186840000D03*
D13*
%TO.P,A1,17,GPIO13*%
%TO.N,COL5*%
X452420000Y-189380000D03*
D14*
X453220000Y-189380000D03*
D15*
%TO.P,A1,18,GND*%
%TO.N,/GND*%
X452420000Y-191920000D03*
D16*
X453220000Y-191920000D03*
D13*
%TO.P,A1,19,GPIO14*%
%TO.N,COL6*%
X452420000Y-194460000D03*
D14*
X453220000Y-194460000D03*
D13*
%TO.P,A1,20,GPIO15*%
%TO.N,COL7*%
X452420000Y-197000000D03*
D14*
X453220000Y-197000000D03*
%TO.P,A1,21,GPIO16*%
%TO.N,COL8*%
X471000000Y-197000000D03*
D13*
X471800000Y-197000000D03*
D14*
%TO.P,A1,22,GPIO17*%
%TO.N,COL9*%
X471000000Y-194460000D03*
D13*
X471800000Y-194460000D03*
D17*
%TO.P,A1,23,GND*%
%TO.N,/GND*%
X471000000Y-191920000D03*
D11*
X471800000Y-191920000D03*
D14*
%TO.P,A1,24,GPIO18*%
%TO.N,COL10*%
X471000000Y-189380000D03*
D13*
X471800000Y-189380000D03*
D14*
%TO.P,A1,25,GPIO19*%
%TO.N,COL11*%
X471000000Y-186840000D03*
D13*
X471800000Y-186840000D03*
D14*
%TO.P,A1,26,GPIO20*%
%TO.N,COL12*%
X471000000Y-184300000D03*
D13*
X471800000Y-184300000D03*
D14*
%TO.P,A1,27,GPIO21*%
%TO.N,COL13*%
X471000000Y-181760000D03*
D13*
X471800000Y-181760000D03*
D17*
%TO.P,A1,28,GND*%
%TO.N,/GND*%
X471000000Y-179220000D03*
D11*
X471800000Y-179220000D03*
D14*
%TO.P,A1,29,GPIO22*%
%TO.N,COL14*%
X471000000Y-176680000D03*
D13*
X471800000Y-176680000D03*
D14*
%TO.P,A1,30,RUN*%
%TO.N,unconnected-(A1-RUN-Pad30)*%
X471000000Y-174140000D03*
D13*
X471800000Y-174140000D03*
D14*
%TO.P,A1,31,GPIO26_ADC0*%
%TO.N,unconnected-(A1-GPIO26_ADC0-Pad31)*%
X471000000Y-171600000D03*
D13*
X471800000Y-171600000D03*
D14*
%TO.P,A1,32,GPIO27_ADC1*%
%TO.N,ENC_A*%
X471000000Y-169060000D03*
D13*
X471800000Y-169060000D03*
D17*
%TO.P,A1,33,AGND*%
%TO.N,Net-(A1-AGND)*%
X471000000Y-166520000D03*
D11*
X471800000Y-166520000D03*
D14*
%TO.P,A1,34,GPIO28_ADC2*%
%TO.N,ENC_B*%
X471000000Y-163980000D03*
D13*
X471800000Y-163980000D03*
D14*
%TO.P,A1,35,ADC_VREF*%
%TO.N,Net-(A1-ADC_VREF)*%
X471000000Y-161440000D03*
D13*
X471800000Y-161440000D03*
D14*
%TO.P,A1,36,3V3*%
%TO.N,unconnected-(A1-3V3-Pad36)*%
X471000000Y-158900000D03*
D13*
X471800000Y-158900000D03*
D14*
%TO.P,A1,37,3V3_EN*%
%TO.N,/GND*%
X471000000Y-156360000D03*
D13*
X471800000Y-156360000D03*
D17*
%TO.P,A1,38,GND*%
X471000000Y-153820000D03*
D11*
X471800000Y-153820000D03*
D14*
%TO.P,A1,39,VSYS*%
X471000000Y-151280000D03*
D13*
X471800000Y-151280000D03*
D14*
%TO.P,A1,40,VBUS*%
X471000000Y-148740000D03*
D13*
X471800000Y-148740000D03*
%TD*%
D10*
%TO.P,SW51,1,1*%
%TO.N,Net-(D51-K)*%
X270260000Y-230970000D03*
%TO.P,SW51,2,2*%
%TO.N,COL7*%
X263910000Y-233510000D03*
%TD*%
%TO.P,SW31,1,1*%
%TO.N,Net-(D31-K)*%
X151120000Y-211920000D03*
%TO.P,SW31,2,2*%
%TO.N,COL1*%
X144770000Y-214460000D03*
%TD*%
%TO.P,SW33,1,1*%
%TO.N,Net-(D33-K)*%
X189290000Y-211920000D03*
%TO.P,SW33,2,2*%
%TO.N,COL3*%
X182940000Y-214460000D03*
%TD*%
%TO.P,SW2,1,1*%
%TO.N,Net-(D2-K)*%
X141540000Y-164920000D03*
%TO.P,SW2,2,2*%
%TO.N,COL1*%
X135190000Y-167460000D03*
%TD*%
%TO.P,SW9,1,1*%
%TO.N,Net-(D9-K)*%
X274540000Y-164920000D03*
%TO.P,SW9,2,2*%
%TO.N,COL8*%
X268190000Y-167460000D03*
%TD*%
%TO.P,SW79,1,1*%
%TO.N,Net-(D79-K)*%
X432040000Y-268670000D03*
%TO.P,SW79,2,2*%
%TO.N,COL11*%
X425690000Y-271210000D03*
%TD*%
%TO.P,SW45,1,1*%
%TO.N,Net-(D45-K)*%
X155790000Y-230920000D03*
%TO.P,SW45,2,2*%
%TO.N,COL1*%
X149440000Y-233460000D03*
%TD*%
%TO.P,SW48,1,1*%
%TO.N,Net-(D48-K)*%
X213160000Y-230920000D03*
%TO.P,SW48,2,2*%
%TO.N,COL4*%
X206810000Y-233460000D03*
%TD*%
%TO.P,SW54,1,1*%
%TO.N,Net-(D54-K)*%
X327360000Y-230970000D03*
%TO.P,SW54,2,2*%
%TO.N,COL10*%
X321010000Y-233510000D03*
%TD*%
%TO.P,SW41,1,1*%
%TO.N,Net-(D41-K)*%
X341290000Y-211920000D03*
%TO.P,SW41,2,2*%
%TO.N,COL11*%
X334940000Y-214460000D03*
%TD*%
%TO.P,SW76,1,1*%
%TO.N,Net-(D76-K)*%
X362790000Y-268920000D03*
%TO.P,SW76,2,2*%
%TO.N,COL8*%
X356440000Y-271460000D03*
%TD*%
%TO.P,SW49,1,1*%
%TO.N,Net-(D49-K)*%
X232210000Y-230970000D03*
%TO.P,SW49,2,2*%
%TO.N,COL5*%
X225860000Y-233510000D03*
%TD*%
%TO.P,SW67,1,1*%
%TO.N,Net-(D67-K)*%
X336740000Y-249927500D03*
%TO.P,SW67,2,2*%
%TO.N,COL11*%
X330390000Y-252467500D03*
%TD*%
%TO.P,SW55,1,1*%
%TO.N,Net-(D55-K)*%
X346430000Y-230970000D03*
%TO.P,SW55,2,2*%
%TO.N,COL11*%
X340080000Y-233510000D03*
%TD*%
%TO.P,SW74,1,1*%
%TO.N,Net-(D74-K)*%
X315290000Y-268920000D03*
%TO.P,SW74,2,2*%
%TO.N,COL4*%
X308940000Y-271460000D03*
%TD*%
%TO.P,SW70,1,1*%
%TO.N,Net-(D70-K)*%
X124790000Y-268920000D03*
%TO.P,SW70,2,2*%
%TO.N,COL0*%
X118440000Y-271460000D03*
%TD*%
%TO.P,SW60,1,1*%
%TO.N,Net-(D60-K)*%
X203340000Y-249920000D03*
%TO.P,SW60,2,2*%
%TO.N,COL3*%
X196990000Y-252460000D03*
%TD*%
%TO.P,SW75,1,1*%
%TO.N,Net-(D75-K)*%
X339040000Y-268920000D03*
%TO.P,SW75,2,2*%
%TO.N,COL7*%
X332690000Y-271460000D03*
%TD*%
%TO.P,SW23,1,1*%
%TO.N,Net-(D23-K)*%
X255540000Y-192920000D03*
%TO.P,SW23,2,2*%
%TO.N,COL7*%
X249190000Y-195460000D03*
%TD*%
D18*
%TO.P,U1,1,GPB0*%
%TO.N,unconnected-(U1-GPB0-Pad1)*%
X443780000Y-189050000D03*
D14*
%TO.P,U1,2,GPB1*%
%TO.N,unconnected-(U1-GPB1-Pad2)*%
X441240000Y-189050000D03*
%TO.P,U1,3,GPB2*%
%TO.N,ENC_SW*%
X438700000Y-189050000D03*
%TO.P,U1,4,GPB3*%
%TO.N,unconnected-(U1-GPB3-Pad4)*%
X436160000Y-189050000D03*
%TO.P,U1,5,GPB4*%
%TO.N,unconnected-(U1-GPB4-Pad5)*%
X433620000Y-189050000D03*
%TO.P,U1,6,GPB5*%
%TO.N,unconnected-(U1-GPB5-Pad6)*%
X431080000Y-189050000D03*
%TO.P,U1,7,GPB6*%
%TO.N,unconnected-(U1-GPB6-Pad7)*%
X428540000Y-189050000D03*
%TO.P,U1,8,GPB7*%
%TO.N,unconnected-(U1-GPB7-Pad8)*%
X426000000Y-189050000D03*
%TO.P,U1,9,VDD*%
%TO.N,/GND*%
X423460000Y-189050000D03*
%TO.P,U1,10,VSS*%
X420920000Y-189050000D03*
%TO.P,U1,11,NC*%
%TO.N,unconnected-(U1-NC-Pad11)*%
X418380000Y-189050000D03*
%TO.P,U1,12,SCK*%
%TO.N,Net-(A1-GPIO1)*%
X415840000Y-189050000D03*
%TO.P,U1,13,SDA*%
%TO.N,Net-(A1-GPIO0)*%
X413300000Y-189050000D03*
%TO.P,U1,14,NC*%
%TO.N,unconnected-(U1-NC-Pad14)*%
X410760000Y-189050000D03*
%TO.P,U1,15,A0*%
%TO.N,/GND*%
X410760000Y-196670000D03*
%TO.P,U1,16,A1*%
X413300000Y-196670000D03*
%TO.P,U1,17,A2*%
X415840000Y-196670000D03*
%TO.P,U1,18,~{RESET}*%
%TO.N,unconnected-(U1-~{RESET}-Pad18)*%
X418380000Y-196670000D03*
%TO.P,U1,19,INTB*%
%TO.N,unconnected-(U1-INTB-Pad19)*%
X420920000Y-196670000D03*
%TO.P,U1,20,INTA*%
%TO.N,unconnected-(U1-INTA-Pad20)*%
X423460000Y-196670000D03*
%TO.P,U1,21,GPA0*%
%TO.N,unconnected-(U1-GPA0-Pad21)*%
X426000000Y-196670000D03*
%TO.P,U1,22,GPA1*%
%TO.N,unconnected-(U1-GPA1-Pad22)*%
X428540000Y-196670000D03*
%TO.P,U1,23,GPA2*%
%TO.N,unconnected-(U1-GPA2-Pad23)*%
X431080000Y-196670000D03*
%TO.P,U1,24,GPA3*%
%TO.N,unconnected-(U1-GPA3-Pad24)*%
X433620000Y-196670000D03*
%TO.P,U1,25,GPA4*%
%TO.N,unconnected-(U1-GPA4-Pad25)*%
X436160000Y-196670000D03*
%TO.P,U1,26,GPA5*%
%TO.N,unconnected-(U1-GPA5-Pad26)*%
X438700000Y-196670000D03*
%TO.P,U1,27,GPA6*%
%TO.N,unconnected-(U1-GPA6-Pad27)*%
X441240000Y-196670000D03*
%TO.P,U1,28,GPA7*%
%TO.N,unconnected-(U1-GPA7-Pad28)*%
X443780000Y-196670000D03*
%TD*%
D10*
%TO.P,SW68,1,1*%
%TO.N,Net-(D68-K)*%
X372540000Y-249920000D03*
%TO.P,SW68,2,2*%
%TO.N,COL12*%
X366190000Y-252460000D03*
%TD*%
%TO.P,SW50,1,1*%
%TO.N,Net-(D50-K)*%
X251260000Y-230920000D03*
%TO.P,SW50,2,2*%
%TO.N,COL6*%
X244910000Y-233460000D03*
%TD*%
%TO.P,SW72,1,1*%
%TO.N,Net-(D72-K)*%
X172290000Y-268920000D03*
%TO.P,SW72,2,2*%
%TO.N,COL2*%
X165940000Y-271460000D03*
%TD*%
%TO.P,SW65,1,1*%
%TO.N,Net-(D65-K)*%
X298740000Y-249920000D03*
%TO.P,SW65,2,2*%
%TO.N,COL9*%
X292390000Y-252460000D03*
%TD*%
%TO.P,SW37,1,1*%
%TO.N,Net-(D37-K)*%
X265290000Y-211920000D03*
%TO.P,SW37,2,2*%
%TO.N,COL7*%
X258940000Y-214460000D03*
%TD*%
%TO.P,SW30,1,1*%
%TO.N,Net-(D30-K)*%
X127290000Y-211920000D03*
%TO.P,SW30,2,2*%
%TO.N,COL0*%
X120940000Y-214460000D03*
%TD*%
%TO.P,SW27,1,1*%
%TO.N,Net-(D27-K)*%
X331540000Y-192920000D03*
%TO.P,SW27,2,2*%
%TO.N,COL11*%
X325190000Y-195460000D03*
%TD*%
%TO.P,SW62,1,1*%
%TO.N,Net-(D62-K)*%
X241540000Y-249920000D03*
%TO.P,SW62,2,2*%
%TO.N,COL5*%
X235190000Y-252460000D03*
%TD*%
%TO.P,SW32,1,1*%
%TO.N,Net-(D32-K)*%
X170290000Y-211920000D03*
%TO.P,SW32,2,2*%
%TO.N,COL2*%
X163940000Y-214460000D03*
%TD*%
%TO.P,SW61,1,1*%
%TO.N,Net-(D61-K)*%
X222340000Y-249920000D03*
%TO.P,SW61,2,2*%
%TO.N,COL4*%
X215990000Y-252460000D03*
%TD*%
%TO.P,SW43,1,1*%
%TO.N,Net-(D43-K)*%
X384040000Y-211920000D03*
%TO.P,SW43,2,2*%
%TO.N,COL13*%
X377690000Y-214460000D03*
%TD*%
%TO.P,SW17,1,1*%
%TO.N,Net-(D17-K)*%
X141540000Y-192920000D03*
%TO.P,SW17,2,2*%
%TO.N,COL1*%
X135190000Y-195460000D03*
%TD*%
D19*
%TO.P,SW91,A,A*%
%TO.N,ENC_A*%
X428800000Y-163250000D03*
D20*
%TO.P,SW91,B,B*%
%TO.N,ENC_B*%
X428800000Y-168250000D03*
%TO.P,SW91,C,C*%
%TO.N,Net-(A1-AGND)*%
X428800000Y-165750000D03*
D21*
%TO.P,SW91,MP*%
%TO.N,N/C*%
X436300000Y-160150000D03*
X436300000Y-171350000D03*
D20*
%TO.P,SW91,S1,S1*%
%TO.N,ENC_SW*%
X443300000Y-168250000D03*
%TO.P,SW91,S2,S2*%
%TO.N,/GND*%
X443300000Y-163250000D03*
%TD*%
D10*
%TO.P,SW64,1,1*%
%TO.N,Net-(D64-K)*%
X279740000Y-249927500D03*
%TO.P,SW64,2,2*%
%TO.N,COL8*%
X273390000Y-252467500D03*
%TD*%
%TO.P,SW28,1,1*%
%TO.N,Net-(D28-K)*%
X350540000Y-192920000D03*
%TO.P,SW28,2,2*%
%TO.N,COL12*%
X344190000Y-195460000D03*
%TD*%
%TO.P,SW40,1,1*%
%TO.N,Net-(D40-K)*%
X322290000Y-211920000D03*
%TO.P,SW40,2,2*%
%TO.N,COL10*%
X315940000Y-214460000D03*
%TD*%
%TO.P,SW22,1,1*%
%TO.N,Net-(D22-K)*%
X236540000Y-192920000D03*
%TO.P,SW22,2,2*%
%TO.N,COL6*%
X230190000Y-195460000D03*
%TD*%
%TO.P,SW39,1,1*%
%TO.N,Net-(D39-K)*%
X303290000Y-211920000D03*
%TO.P,SW39,2,2*%
%TO.N,COL9*%
X296940000Y-214460000D03*
%TD*%
%TO.P,SW15,1,1*%
%TO.N,Net-(D15-K)*%
X388620000Y-164920000D03*
%TO.P,SW15,2,2*%
%TO.N,COL14*%
X382270000Y-167460000D03*
%TD*%
%TO.P,SW12,1,1*%
%TO.N,Net-(D12-K)*%
X331540000Y-164920000D03*
%TO.P,SW12,2,2*%
%TO.N,COL11*%
X325190000Y-167460000D03*
%TD*%
%TO.P,SW3,1,1*%
%TO.N,Net-(D3-K)*%
X160540000Y-164920000D03*
%TO.P,SW3,2,2*%
%TO.N,COL2*%
X154190000Y-167460000D03*
%TD*%
%TO.P,SW1,1,1*%
%TO.N,Net-(D1-K)*%
X122540000Y-164920000D03*
%TO.P,SW1,2,2*%
%TO.N,COL0*%
X116190000Y-167460000D03*
%TD*%
D22*
%TO.P,J1,1,Pin_1*%
%TO.N,/GND*%
X407240000Y-161800000D03*
D23*
%TO.P,J1,2,Pin_2*%
%TO.N,Net-(A1-AGND)*%
X409780000Y-161800000D03*
%TO.P,J1,3,Pin_3*%
%TO.N,Net-(A1-GPIO0)*%
X412320000Y-161800000D03*
%TO.P,J1,4,Pin_4*%
%TO.N,Net-(A1-GPIO1)*%
X414860000Y-161800000D03*
%TD*%
D10*
%TO.P,SW24,1,1*%
%TO.N,Net-(D24-K)*%
X274540000Y-192920000D03*
%TO.P,SW24,2,2*%
%TO.N,COL8*%
X268190000Y-195460000D03*
%TD*%
%TO.P,SW20,1,1*%
%TO.N,Net-(D20-K)*%
X198540000Y-192920000D03*
%TO.P,SW20,2,2*%
%TO.N,COL4*%
X192190000Y-195460000D03*
%TD*%
%TO.P,SW69,1,1*%
%TO.N,Net-(D69-K)*%
X432040000Y-249670000D03*
%TO.P,SW69,2,2*%
%TO.N,COL13*%
X425690000Y-252210000D03*
%TD*%
%TO.P,SW71,1,1*%
%TO.N,Net-(D71-K)*%
X148540000Y-268920000D03*
%TO.P,SW71,2,2*%
%TO.N,COL1*%
X142190000Y-271460000D03*
%TD*%
%TO.P,SW19,1,1*%
%TO.N,Net-(D19-K)*%
X179540000Y-192920000D03*
%TO.P,SW19,2,2*%
%TO.N,COL3*%
X173190000Y-195460000D03*
%TD*%
%TO.P,SW13,1,1*%
%TO.N,Net-(D13-K)*%
X350540000Y-164920000D03*
%TO.P,SW13,2,2*%
%TO.N,COL12*%
X344190000Y-167460000D03*
%TD*%
%TO.P,SW35,1,1*%
%TO.N,Net-(D35-K)*%
X227290000Y-211920000D03*
%TO.P,SW35,2,2*%
%TO.N,COL5*%
X220940000Y-214460000D03*
%TD*%
%TO.P,SW77,1,1*%
%TO.N,Net-(D77-K)*%
X386710000Y-268920000D03*
%TO.P,SW77,2,2*%
%TO.N,COL9*%
X380360000Y-271460000D03*
%TD*%
%TO.P,SW29,1,1*%
%TO.N,Net-(D29-K)*%
X379040000Y-192920000D03*
%TO.P,SW29,2,2*%
%TO.N,COL13*%
X372690000Y-195460000D03*
%TD*%
%TO.P,SW59,1,1*%
%TO.N,Net-(D59-K)*%
X184340000Y-249920000D03*
%TO.P,SW59,2,2*%
%TO.N,COL2*%
X177990000Y-252460000D03*
%TD*%
%TO.P,SW7,1,1*%
%TO.N,Net-(D7-K)*%
X236540000Y-164920000D03*
%TO.P,SW7,2,2*%
%TO.N,COL6*%
X230190000Y-167460000D03*
%TD*%
%TO.P,SW11,1,1*%
%TO.N,Net-(D11-K)*%
X312540000Y-164920000D03*
%TO.P,SW11,2,2*%
%TO.N,COL10*%
X306190000Y-167460000D03*
%TD*%
%TO.P,SW36,1,1*%
%TO.N,Net-(D36-K)*%
X246290000Y-211920000D03*
%TO.P,SW36,2,2*%
%TO.N,COL6*%
X239940000Y-214460000D03*
%TD*%
%TO.P,SW14,1,1*%
%TO.N,Net-(D14-K)*%
X369540000Y-164920000D03*
%TO.P,SW14,2,2*%
%TO.N,COL13*%
X363190000Y-167460000D03*
%TD*%
D18*
%TO.P,D46,1,K*%
%TO.N,Net-(D46-K)*%
X163320000Y-230950000D03*
D14*
%TO.P,D46,2,A*%
%TO.N,ROW3*%
X163320000Y-238570000D03*
%TD*%
D18*
%TO.P,D45,1,K*%
%TO.N,Net-(D45-K)*%
X143750000Y-231000000D03*
D14*
%TO.P,D45,2,A*%
%TO.N,ROW3*%
X143750000Y-238620000D03*
%TD*%
D18*
%TO.P,D29,1,K*%
%TO.N,Net-(D29-K)*%
X358000000Y-193000000D03*
D14*
%TO.P,D29,2,A*%
%TO.N,ROW1*%
X358000000Y-200620000D03*
%TD*%
D18*
%TO.P,D41,1,K*%
%TO.N,Net-(D41-K)*%
X330000000Y-212000000D03*
D14*
%TO.P,D41,2,A*%
%TO.N,ROW2*%
X330000000Y-219620000D03*
%TD*%
D18*
%TO.P,D6,1,K*%
%TO.N,Net-(D6-K)*%
X206000000Y-165000000D03*
D14*
%TO.P,D6,2,A*%
%TO.N,ROW0*%
X206000000Y-172620000D03*
%TD*%
D18*
%TO.P,D35,1,K*%
%TO.N,Net-(D35-K)*%
X216000000Y-212000000D03*
D14*
%TO.P,D35,2,A*%
%TO.N,ROW2*%
X216000000Y-219620000D03*
%TD*%
D18*
%TO.P,D30,1,K*%
%TO.N,Net-(D30-K)*%
X111250000Y-212000000D03*
D14*
%TO.P,D30,2,A*%
%TO.N,ROW2*%
X111250000Y-219620000D03*
%TD*%
D18*
%TO.P,D2,1,K*%
%TO.N,Net-(D2-K)*%
X130000000Y-165000000D03*
D14*
%TO.P,D2,2,A*%
%TO.N,ROW0*%
X130000000Y-172620000D03*
%TD*%
D18*
%TO.P,D3,1,K*%
%TO.N,Net-(D3-K)*%
X149000000Y-165000000D03*
D14*
%TO.P,D3,2,A*%
%TO.N,ROW0*%
X149000000Y-172620000D03*
%TD*%
D18*
%TO.P,D69,1,K*%
%TO.N,Net-(D69-K)*%
X419750000Y-249750000D03*
D14*
%TO.P,D69,2,A*%
%TO.N,ROW4*%
X419750000Y-257370000D03*
%TD*%
D18*
%TO.P,D32,1,K*%
%TO.N,Net-(D32-K)*%
X159000000Y-212000000D03*
D14*
%TO.P,D32,2,A*%
%TO.N,ROW2*%
X159000000Y-219620000D03*
%TD*%
D18*
%TO.P,D38,1,K*%
%TO.N,Net-(D38-K)*%
X273000000Y-212000000D03*
D14*
%TO.P,D38,2,A*%
%TO.N,ROW2*%
X273000000Y-219620000D03*
%TD*%
D18*
%TO.P,D26,1,K*%
%TO.N,Net-(D26-K)*%
X301000000Y-193000000D03*
D14*
%TO.P,D26,2,A*%
%TO.N,ROW1*%
X301000000Y-200620000D03*
%TD*%
D18*
%TO.P,D37,1,K*%
%TO.N,Net-(D37-K)*%
X254000000Y-212000000D03*
D14*
%TO.P,D37,2,A*%
%TO.N,ROW2*%
X254000000Y-219620000D03*
%TD*%
D18*
%TO.P,D21,1,K*%
%TO.N,Net-(D21-K)*%
X206000000Y-193000000D03*
D14*
%TO.P,D21,2,A*%
%TO.N,ROW1*%
X206000000Y-200620000D03*
%TD*%
D18*
%TO.P,D61,1,K*%
%TO.N,Net-(D61-K)*%
X210900000Y-249965000D03*
D14*
%TO.P,D61,2,A*%
%TO.N,ROW4*%
X210900000Y-257585000D03*
%TD*%
D18*
%TO.P,D4,1,K*%
%TO.N,Net-(D4-K)*%
X168000000Y-165000000D03*
D14*
%TO.P,D4,2,A*%
%TO.N,ROW0*%
X168000000Y-172620000D03*
%TD*%
D18*
%TO.P,D22,1,K*%
%TO.N,Net-(D22-K)*%
X225000000Y-193000000D03*
D14*
%TO.P,D22,2,A*%
%TO.N,ROW1*%
X225000000Y-200620000D03*
%TD*%
D18*
%TO.P,D17,1,K*%
%TO.N,Net-(D17-K)*%
X129000000Y-193000000D03*
D14*
%TO.P,D17,2,A*%
%TO.N,ROW1*%
X129000000Y-200620000D03*
%TD*%
D18*
%TO.P,D36,1,K*%
%TO.N,Net-(D36-K)*%
X235000000Y-212000000D03*
D14*
%TO.P,D36,2,A*%
%TO.N,ROW2*%
X235000000Y-219620000D03*
%TD*%
D18*
%TO.P,D74,1,K*%
%TO.N,Net-(D74-K)*%
X300960000Y-268920000D03*
D14*
%TO.P,D74,2,A*%
%TO.N,ROW5*%
X300960000Y-276540000D03*
%TD*%
D18*
%TO.P,D15,1,K*%
%TO.N,Net-(D15-K)*%
X377000000Y-165000000D03*
D14*
%TO.P,D15,2,A*%
%TO.N,ROW0*%
X377000000Y-172620000D03*
%TD*%
D18*
%TO.P,D8,1,K*%
%TO.N,Net-(D8-K)*%
X244000000Y-165000000D03*
D14*
%TO.P,D8,2,A*%
%TO.N,ROW0*%
X244000000Y-172620000D03*
%TD*%
D18*
%TO.P,D12,1,K*%
%TO.N,Net-(D12-K)*%
X320000000Y-165000000D03*
D14*
%TO.P,D12,2,A*%
%TO.N,ROW0*%
X320000000Y-172620000D03*
%TD*%
D18*
%TO.P,D78,1,K*%
%TO.N,Net-(D78-K)*%
X401000000Y-268750000D03*
D14*
%TO.P,D78,2,A*%
%TO.N,ROW5*%
X401000000Y-276370000D03*
%TD*%
D18*
%TO.P,D47,1,K*%
%TO.N,Net-(D47-K)*%
X181270000Y-230950000D03*
D14*
%TO.P,D47,2,A*%
%TO.N,ROW3*%
X181270000Y-238570000D03*
%TD*%
D18*
%TO.P,D27,1,K*%
%TO.N,Net-(D27-K)*%
X320000000Y-193000000D03*
D14*
%TO.P,D27,2,A*%
%TO.N,ROW1*%
X320000000Y-200620000D03*
%TD*%
D18*
%TO.P,D60,1,K*%
%TO.N,Net-(D60-K)*%
X191600000Y-249980000D03*
D14*
%TO.P,D60,2,A*%
%TO.N,ROW4*%
X191600000Y-257600000D03*
%TD*%
D18*
%TO.P,D62,1,K*%
%TO.N,Net-(D62-K)*%
X228650000Y-249965000D03*
D14*
%TO.P,D62,2,A*%
%TO.N,ROW4*%
X228650000Y-257585000D03*
%TD*%
D18*
%TO.P,D50,1,K*%
%TO.N,Net-(D50-K)*%
X239270000Y-230950000D03*
D14*
%TO.P,D50,2,A*%
%TO.N,ROW3*%
X239270000Y-238570000D03*
%TD*%
D18*
%TO.P,D63,1,K*%
%TO.N,Net-(D63-K)*%
X248650000Y-249965000D03*
D14*
%TO.P,D63,2,A*%
%TO.N,ROW4*%
X248650000Y-257585000D03*
%TD*%
D18*
%TO.P,D58,1,K*%
%TO.N,Net-(D58-K)*%
X152600000Y-250000000D03*
D14*
%TO.P,D58,2,A*%
%TO.N,ROW4*%
X152600000Y-257620000D03*
%TD*%
D18*
%TO.P,D75,1,K*%
%TO.N,Net-(D75-K)*%
X325250000Y-269000000D03*
D14*
%TO.P,D75,2,A*%
%TO.N,ROW5*%
X325250000Y-276620000D03*
%TD*%
D18*
%TO.P,D28,1,K*%
%TO.N,Net-(D28-K)*%
X339000000Y-193000000D03*
D14*
%TO.P,D28,2,A*%
%TO.N,ROW1*%
X339000000Y-200620000D03*
%TD*%
D18*
%TO.P,D42,1,K*%
%TO.N,Net-(D42-K)*%
X349000000Y-212000000D03*
D14*
%TO.P,D42,2,A*%
%TO.N,ROW2*%
X349000000Y-219620000D03*
%TD*%
D18*
%TO.P,D7,1,K*%
%TO.N,Net-(D7-K)*%
X225000000Y-165000000D03*
D14*
%TO.P,D7,2,A*%
%TO.N,ROW0*%
X225000000Y-172620000D03*
%TD*%
D18*
%TO.P,D57,1,K*%
%TO.N,Net-(D57-K)*%
X110400000Y-250000000D03*
D14*
%TO.P,D57,2,A*%
%TO.N,ROW4*%
X110400000Y-257620000D03*
%TD*%
D18*
%TO.P,D71,1,K*%
%TO.N,Net-(D71-K)*%
X134250000Y-268920000D03*
D14*
%TO.P,D71,2,A*%
%TO.N,ROW5*%
X134250000Y-276540000D03*
%TD*%
D18*
%TO.P,D14,1,K*%
%TO.N,Net-(D14-K)*%
X358000000Y-165000000D03*
D14*
%TO.P,D14,2,A*%
%TO.N,ROW0*%
X358000000Y-172620000D03*
%TD*%
D18*
%TO.P,D43,1,K*%
%TO.N,Net-(D43-K)*%
X368000000Y-212000000D03*
D14*
%TO.P,D43,2,A*%
%TO.N,ROW2*%
X368000000Y-219620000D03*
%TD*%
D18*
%TO.P,D25,1,K*%
%TO.N,Net-(D25-K)*%
X282000000Y-193000000D03*
D14*
%TO.P,D25,2,A*%
%TO.N,ROW1*%
X282000000Y-200620000D03*
%TD*%
D18*
%TO.P,D67,1,K*%
%TO.N,Net-(D67-K)*%
X324650000Y-249965000D03*
D14*
%TO.P,D67,2,A*%
%TO.N,ROW4*%
X324650000Y-257585000D03*
%TD*%
D18*
%TO.P,D51,1,K*%
%TO.N,Net-(D51-K)*%
X258270000Y-230950000D03*
D14*
%TO.P,D51,2,A*%
%TO.N,ROW3*%
X258270000Y-238570000D03*
%TD*%
D18*
%TO.P,D52,1,K*%
%TO.N,Net-(D52-K)*%
X277270000Y-230950000D03*
D14*
%TO.P,D52,2,A*%
%TO.N,ROW3*%
X277270000Y-238570000D03*
%TD*%
D18*
%TO.P,D24,1,K*%
%TO.N,Net-(D24-K)*%
X262000000Y-193000000D03*
D14*
%TO.P,D24,2,A*%
%TO.N,ROW1*%
X262000000Y-200620000D03*
%TD*%
D18*
%TO.P,D80,1,K*%
%TO.N,Net-(D80-K)*%
X439500000Y-268750000D03*
D14*
%TO.P,D80,2,A*%
%TO.N,ROW5*%
X439500000Y-276370000D03*
%TD*%
D18*
%TO.P,D56,1,K*%
%TO.N,Net-(D56-K)*%
X353270000Y-230950000D03*
D14*
%TO.P,D56,2,A*%
%TO.N,ROW3*%
X353270000Y-238570000D03*
%TD*%
D18*
%TO.P,D68,1,K*%
%TO.N,Net-(D68-K)*%
X343650000Y-249965000D03*
D14*
%TO.P,D68,2,A*%
%TO.N,ROW4*%
X343650000Y-257585000D03*
%TD*%
D18*
%TO.P,D18,1,K*%
%TO.N,Net-(D18-K)*%
X149000000Y-193000000D03*
D14*
%TO.P,D18,2,A*%
%TO.N,ROW1*%
X149000000Y-200620000D03*
%TD*%
D18*
%TO.P,D48,1,K*%
%TO.N,Net-(D48-K)*%
X201270000Y-230950000D03*
D14*
%TO.P,D48,2,A*%
%TO.N,ROW3*%
X201270000Y-238570000D03*
%TD*%
D18*
%TO.P,D13,1,K*%
%TO.N,Net-(D13-K)*%
X339000000Y-165000000D03*
D14*
%TO.P,D13,2,A*%
%TO.N,ROW0*%
X339000000Y-172620000D03*
%TD*%
D18*
%TO.P,D73,1,K*%
%TO.N,Net-(D73-K)*%
X182000000Y-269130000D03*
D14*
%TO.P,D73,2,A*%
%TO.N,ROW5*%
X182000000Y-276750000D03*
%TD*%
D18*
%TO.P,D72,1,K*%
%TO.N,Net-(D72-K)*%
X157750000Y-269000000D03*
D14*
%TO.P,D72,2,A*%
%TO.N,ROW5*%
X157750000Y-276620000D03*
%TD*%
D18*
%TO.P,D59,1,K*%
%TO.N,Net-(D59-K)*%
X172600000Y-250000000D03*
D14*
%TO.P,D59,2,A*%
%TO.N,ROW4*%
X172600000Y-257620000D03*
%TD*%
D18*
%TO.P,D11,1,K*%
%TO.N,Net-(D11-K)*%
X301000000Y-165000000D03*
D14*
%TO.P,D11,2,A*%
%TO.N,ROW0*%
X301000000Y-172620000D03*
%TD*%
D18*
%TO.P,D19,1,K*%
%TO.N,Net-(D19-K)*%
X168000000Y-193000000D03*
D14*
%TO.P,D19,2,A*%
%TO.N,ROW1*%
X168000000Y-200620000D03*
%TD*%
D18*
%TO.P,D79,1,K*%
%TO.N,Net-(D79-K)*%
X420250000Y-268750000D03*
D14*
%TO.P,D79,2,A*%
%TO.N,ROW5*%
X420250000Y-276370000D03*
%TD*%
D18*
%TO.P,D49,1,K*%
%TO.N,Net-(D49-K)*%
X220270000Y-230950000D03*
D14*
%TO.P,D49,2,A*%
%TO.N,ROW3*%
X220270000Y-238570000D03*
%TD*%
D18*
%TO.P,D9,1,K*%
%TO.N,Net-(D9-K)*%
X263000000Y-165000000D03*
D14*
%TO.P,D9,2,A*%
%TO.N,ROW0*%
X263000000Y-172620000D03*
%TD*%
D18*
%TO.P,D65,1,K*%
%TO.N,Net-(D65-K)*%
X286650000Y-249965000D03*
D14*
%TO.P,D65,2,A*%
%TO.N,ROW4*%
X286650000Y-257585000D03*
%TD*%
D18*
%TO.P,D40,1,K*%
%TO.N,Net-(D40-K)*%
X311000000Y-212000000D03*
D14*
%TO.P,D40,2,A*%
%TO.N,ROW2*%
X311000000Y-219620000D03*
%TD*%
D18*
%TO.P,D31,1,K*%
%TO.N,Net-(D31-K)*%
X139580000Y-212000000D03*
D14*
%TO.P,D31,2,A*%
%TO.N,ROW2*%
X139580000Y-219620000D03*
%TD*%
D18*
%TO.P,D1,1,K*%
%TO.N,Net-(D1-K)*%
X111000000Y-165000000D03*
D14*
%TO.P,D1,2,A*%
%TO.N,ROW0*%
X111000000Y-172620000D03*
%TD*%
D18*
%TO.P,D23,1,K*%
%TO.N,Net-(D23-K)*%
X243000000Y-193000000D03*
D14*
%TO.P,D23,2,A*%
%TO.N,ROW1*%
X243000000Y-200620000D03*
%TD*%
D18*
%TO.P,D55,1,K*%
%TO.N,Net-(D55-K)*%
X334270000Y-230950000D03*
D14*
%TO.P,D55,2,A*%
%TO.N,ROW3*%
X334270000Y-238570000D03*
%TD*%
D18*
%TO.P,D76,1,K*%
%TO.N,Net-(D76-K)*%
X348250000Y-269000000D03*
D14*
%TO.P,D76,2,A*%
%TO.N,ROW5*%
X348250000Y-276620000D03*
%TD*%
D18*
%TO.P,D33,1,K*%
%TO.N,Net-(D33-K)*%
X178000000Y-212000000D03*
D14*
%TO.P,D33,2,A*%
%TO.N,ROW2*%
X178000000Y-219620000D03*
%TD*%
D18*
%TO.P,D66,1,K*%
%TO.N,Net-(D66-K)*%
X305650000Y-249965000D03*
D14*
%TO.P,D66,2,A*%
%TO.N,ROW4*%
X305650000Y-257585000D03*
%TD*%
D18*
%TO.P,D34,1,K*%
%TO.N,Net-(D34-K)*%
X197000000Y-212000000D03*
D14*
%TO.P,D34,2,A*%
%TO.N,ROW2*%
X197000000Y-219620000D03*
%TD*%
D18*
%TO.P,D10,1,K*%
%TO.N,Net-(D10-K)*%
X282000000Y-165000000D03*
D14*
%TO.P,D10,2,A*%
%TO.N,ROW0*%
X282000000Y-172620000D03*
%TD*%
D18*
%TO.P,D64,1,K*%
%TO.N,Net-(D64-K)*%
X267650000Y-249965000D03*
D14*
%TO.P,D64,2,A*%
%TO.N,ROW4*%
X267650000Y-257585000D03*
%TD*%
D18*
%TO.P,D16,1,K*%
%TO.N,Net-(D16-K)*%
X110000000Y-193000000D03*
D14*
%TO.P,D16,2,A*%
%TO.N,ROW1*%
X110000000Y-200620000D03*
%TD*%
D18*
%TO.P,D77,1,K*%
%TO.N,Net-(D77-K)*%
X372750000Y-269000000D03*
D14*
%TO.P,D77,2,A*%
%TO.N,ROW5*%
X372750000Y-276620000D03*
%TD*%
D18*
%TO.P,D20,1,K*%
%TO.N,Net-(D20-K)*%
X187000000Y-193000000D03*
D14*
%TO.P,D20,2,A*%
%TO.N,ROW1*%
X187000000Y-200620000D03*
%TD*%
D18*
%TO.P,D5,1,K*%
%TO.N,Net-(D5-K)*%
X187000000Y-165000000D03*
D14*
%TO.P,D5,2,A*%
%TO.N,ROW0*%
X187000000Y-172620000D03*
%TD*%
D18*
%TO.P,D44,1,K*%
%TO.N,Net-(D44-K)*%
X110500000Y-231000000D03*
D14*
%TO.P,D44,2,A*%
%TO.N,ROW3*%
X110500000Y-238620000D03*
%TD*%
D18*
%TO.P,D53,1,K*%
%TO.N,Net-(D53-K)*%
X296270000Y-230950000D03*
D14*
%TO.P,D53,2,A*%
%TO.N,ROW3*%
X296270000Y-238570000D03*
%TD*%
D18*
%TO.P,D39,1,K*%
%TO.N,Net-(D39-K)*%
X292000000Y-212000000D03*
D14*
%TO.P,D39,2,A*%
%TO.N,ROW2*%
X292000000Y-219620000D03*
%TD*%
D18*
%TO.P,D70,1,K*%
%TO.N,Net-(D70-K)*%
X110500000Y-269000000D03*
D14*
%TO.P,D70,2,A*%
%TO.N,ROW5*%
X110500000Y-276620000D03*
%TD*%
D18*
%TO.P,D54,1,K*%
%TO.N,Net-(D54-K)*%
X315270000Y-230950000D03*
D14*
%TO.P,D54,2,A*%
%TO.N,ROW3*%
X315270000Y-238570000D03*
%TD*%
D24*
%TO.N,ENC_A*%
X456000000Y-172500000D03*
X446000000Y-167000000D03*
%TO.N,ENC_B*%
X446400000Y-176000000D03*
X437250000Y-176000000D03*
%TO.N,Net-(A1-AGND)*%
X405500000Y-189250000D03*
X399250000Y-189250000D03*
%TO.N,Net-(A1-GPIO1)*%
X448000000Y-155500000D03*
X450000000Y-155250000D03*
X446750000Y-157000000D03*
X445000000Y-157750000D03*
X442000000Y-158250000D03*
%TO.N,Net-(A1-GPIO0)*%
X449250000Y-157000000D03*
X448000000Y-158250000D03*
X446750000Y-159500000D03*
X445500000Y-160750000D03*
X410250000Y-177500000D03*
%TO.N,ENC_SW*%
X438750000Y-186250000D03*
X438750000Y-184600000D03*
X438750000Y-180500000D03*
%TO.N,/GND*%
X446000000Y-165250000D03*
X411000000Y-179750000D03*
%TO.N,Net-(A1-AGND)*%
X446250000Y-179000000D03*
%TO.N,COL14*%
X448500000Y-185750000D03*
X444500000Y-184000000D03*
%TO.N,COL13*%
X455750000Y-237750000D03*
%TO.N,COL9*%
X473500000Y-201250000D03*
%TO.N,COL7*%
X448250000Y-198750000D03*
X253500000Y-183750000D03*
%TO.N,COL6*%
X401750000Y-199250000D03*
X238250000Y-184500000D03*
%TO.N,COL5*%
X448500000Y-188000000D03*
X422250000Y-179250000D03*
%TO.N,COL4*%
X448500000Y-187000000D03*
X444750000Y-187000000D03*
X397250000Y-171000000D03*
%TO.N,COL3*%
X447250000Y-180500000D03*
X443500000Y-157250000D03*
%TO.N,COL2*%
X448500000Y-181250000D03*
X444000000Y-181250000D03*
X399150000Y-166000000D03*
%TO.N,COL1*%
X455000000Y-164000000D03*
%TO.N,COL0*%
X446250000Y-155250000D03*
%TO.N,ROW4*%
X446250000Y-205500000D03*
%TO.N,ROW3*%
X407875000Y-221125000D03*
%TD*%
D25*
%TO.N,ENC_A*%
X456000000Y-169651000D02*
X456000000Y-172500000D01*
X453975000Y-167626000D02*
X456000000Y-169651000D01*
X446626000Y-167626000D02*
X453975000Y-167626000D01*
X446000000Y-167000000D02*
X446626000Y-167626000D01*
%TO.N,COL0*%
X453610000Y-173750000D02*
X453220000Y-174140000D01*
X457500000Y-164162950D02*
X457500000Y-173750000D01*
X453676050Y-160339000D02*
X457500000Y-164162950D01*
X457500000Y-173750000D02*
X453610000Y-173750000D01*
X451339000Y-160339000D02*
X453676050Y-160339000D01*
X446250000Y-155250000D02*
X451339000Y-160339000D01*
%TO.N,ENC_B*%
X459401000Y-175579000D02*
X471000000Y-163980000D01*
X446821000Y-175579000D02*
X459401000Y-175579000D01*
X446400000Y-176000000D02*
X446821000Y-175579000D01*
X437250000Y-176000000D02*
X437500000Y-176000000D01*
X436550000Y-176000000D02*
X437250000Y-176000000D01*
X428800000Y-168250000D02*
X436550000Y-176000000D01*
%TO.N,Net-(A1-AGND)*%
X399250000Y-189250000D02*
X405500000Y-189250000D01*
%TO.N,Net-(A1-GPIO1)*%
X448000000Y-154000000D02*
X448000000Y-155500000D01*
X445000000Y-155250000D02*
X445000000Y-154000000D01*
X445000000Y-154000000D02*
X448000000Y-154000000D01*
X446750000Y-157000000D02*
X445000000Y-155250000D01*
X450000000Y-153368630D02*
X450000000Y-155250000D01*
X452088630Y-151280000D02*
X450000000Y-153368630D01*
X453220000Y-151280000D02*
X452088630Y-151280000D01*
X444500000Y-158250000D02*
X445000000Y-157750000D01*
X442000000Y-158250000D02*
X444500000Y-158250000D01*
%TO.N,Net-(A1-GPIO0)*%
X452420000Y-148740000D02*
X453220000Y-148740000D01*
X449250000Y-151910000D02*
X452420000Y-148740000D01*
X449250000Y-157000000D02*
X449250000Y-151910000D01*
X445500000Y-160750000D02*
X446750000Y-159500000D01*
X410250000Y-163870000D02*
X410250000Y-177500000D01*
X412320000Y-161800000D02*
X410250000Y-163870000D01*
%TO.N,ENC_SW*%
X438750000Y-186250000D02*
X438750000Y-186500000D01*
X438750000Y-184600000D02*
X438750000Y-186250000D01*
X438750000Y-172800000D02*
X438750000Y-180500000D01*
X443300000Y-168250000D02*
X438750000Y-172800000D01*
%TO.N,/GND*%
X446000000Y-165250000D02*
X451950000Y-165250000D01*
X451950000Y-165250000D02*
X453220000Y-166520000D01*
X407240000Y-175990000D02*
X411000000Y-179750000D01*
X407240000Y-161800000D02*
X407240000Y-175990000D01*
%TO.N,Net-(A1-AGND)*%
X459739000Y-177781000D02*
X471000000Y-166520000D01*
X447469000Y-177781000D02*
X459739000Y-177781000D01*
X446250000Y-179000000D02*
X447469000Y-177781000D01*
%TO.N,ROW4*%
X445401000Y-169060000D02*
X453220000Y-169060000D01*
X445401000Y-183483957D02*
X445401000Y-169060000D01*
X445502000Y-183584957D02*
X445401000Y-183483957D01*
X445502000Y-184415043D02*
X445502000Y-183584957D01*
X445401000Y-184516043D02*
X445502000Y-184415043D01*
X445752000Y-186584957D02*
X445401000Y-186233957D01*
X445752000Y-187415043D02*
X445752000Y-186584957D01*
X445401000Y-186233957D02*
X445401000Y-184516043D01*
X445750000Y-202817100D02*
X445401000Y-202468100D01*
X445750000Y-205000000D02*
X445750000Y-202817100D01*
X445401000Y-202468100D02*
X445401000Y-187766043D01*
X445401000Y-187766043D02*
X445752000Y-187415043D01*
X446250000Y-205500000D02*
X445750000Y-205000000D01*
%TO.N,ROW3*%
X446520000Y-163980000D02*
X453220000Y-163980000D01*
X446500000Y-164000000D02*
X446520000Y-163980000D01*
X445000000Y-164000000D02*
X446500000Y-164000000D01*
X445000000Y-183650057D02*
X445000000Y-164000000D01*
X445101000Y-183751057D02*
X445000000Y-183650057D01*
X445101000Y-184248943D02*
X445101000Y-183751057D01*
X445000000Y-186400057D02*
X445000000Y-184349943D01*
X445351000Y-186751057D02*
X445000000Y-186400057D01*
X445000000Y-187599943D02*
X445351000Y-187248943D01*
X445000000Y-203000000D02*
X445000000Y-187599943D01*
X426875000Y-221125000D02*
X445000000Y-203000000D01*
X445000000Y-184349943D02*
X445101000Y-184248943D01*
X407875000Y-221125000D02*
X426875000Y-221125000D01*
X445351000Y-187248943D02*
X445351000Y-186751057D01*
%TO.N,COL14*%
X465578190Y-176680000D02*
X471000000Y-176680000D01*
X464141019Y-178117171D02*
X465578190Y-176680000D01*
X464141019Y-180029045D02*
X464141019Y-178117171D01*
X458431064Y-185739000D02*
X464141019Y-180029045D01*
X448500000Y-185750000D02*
X448511000Y-185739000D01*
X448511000Y-185739000D02*
X458431064Y-185739000D01*
X402932900Y-184000000D02*
X444500000Y-184000000D01*
X400349000Y-181416100D02*
X402932900Y-184000000D01*
X396360057Y-167460000D02*
X400349000Y-171448943D01*
X400349000Y-171448943D02*
X400349000Y-181416100D01*
X382270000Y-167460000D02*
X396360057Y-167460000D01*
%TO.N,COL13*%
X440150000Y-237750000D02*
X425690000Y-252210000D01*
X455750000Y-237750000D02*
X440150000Y-237750000D01*
%TO.N,COL12*%
X460437164Y-184300000D02*
X471000000Y-184300000D01*
X454909000Y-194251731D02*
X454909000Y-189828164D01*
X458469000Y-197811731D02*
X454909000Y-194251731D01*
X458469000Y-257431000D02*
X458469000Y-197811731D01*
X454909000Y-189828164D02*
X460437164Y-184300000D01*
X444690000Y-271210000D02*
X458469000Y-257431000D01*
%TO.N,COL11*%
X469311000Y-188529000D02*
X471000000Y-186840000D01*
X469311000Y-283189000D02*
X469311000Y-188529000D01*
X430500000Y-283250000D02*
X469250000Y-283250000D01*
X425690000Y-278440000D02*
X430500000Y-283250000D01*
X425690000Y-271210000D02*
X425690000Y-278440000D01*
X469250000Y-283250000D02*
X469311000Y-283189000D01*
%TO.N,COL9*%
X470000000Y-204750000D02*
X473500000Y-201250000D01*
X470000000Y-284000000D02*
X470000000Y-204750000D01*
X390845184Y-284000000D02*
X470000000Y-284000000D01*
X380360000Y-271460000D02*
X380360000Y-273514816D01*
X380360000Y-273514816D02*
X390845184Y-284000000D01*
%TO.N,COL8*%
X475000000Y-284500000D02*
X475000000Y-200200000D01*
X359750000Y-284500000D02*
X475000000Y-284500000D01*
X356440000Y-281190000D02*
X359750000Y-284500000D01*
X356440000Y-271460000D02*
X356440000Y-281190000D01*
X475000000Y-200200000D02*
X471800000Y-197000000D01*
%TO.N,COL7*%
X249190000Y-179440000D02*
X253500000Y-183750000D01*
X249190000Y-167460000D02*
X249190000Y-179440000D01*
%TO.N,COL6*%
X456250000Y-197490000D02*
X453220000Y-194460000D01*
X456250000Y-224500000D02*
X456250000Y-197490000D01*
X401750000Y-219750000D02*
X406500000Y-224500000D01*
X401750000Y-199250000D02*
X401750000Y-219750000D01*
X230190000Y-176440000D02*
X238250000Y-184500000D01*
X230190000Y-167460000D02*
X230190000Y-176440000D01*
%TO.N,COL5*%
X422250000Y-156302000D02*
X422250000Y-179250000D01*
X228139314Y-156302000D02*
X422250000Y-156302000D01*
X216981314Y-167460000D02*
X228139314Y-156302000D01*
X211190000Y-167460000D02*
X216981314Y-167460000D01*
X449880000Y-189380000D02*
X453220000Y-189380000D01*
X448500000Y-188000000D02*
X449880000Y-189380000D01*
X422250000Y-179250000D02*
X422250000Y-179500000D01*
%TO.N,COL4*%
X448660000Y-186840000D02*
X453220000Y-186840000D01*
X448500000Y-187000000D02*
X448660000Y-186840000D01*
X397500000Y-187000000D02*
X444750000Y-187000000D01*
X397250000Y-186750000D02*
X397500000Y-187000000D01*
X397250000Y-171000000D02*
X397250000Y-186750000D01*
%TO.N,COL3*%
X178981314Y-167460000D02*
X190540314Y-155901000D01*
X190540314Y-155901000D02*
X442151000Y-155901000D01*
X173190000Y-167460000D02*
X178981314Y-167460000D01*
X442151000Y-155901000D02*
X443500000Y-157250000D01*
X450700057Y-184300000D02*
X453220000Y-184300000D01*
X447250000Y-180500000D02*
X447250000Y-180849943D01*
X447250000Y-180849943D02*
X450700057Y-184300000D01*
%TO.N,COL2*%
X400750000Y-181250000D02*
X444000000Y-181250000D01*
X400750000Y-167600000D02*
X400750000Y-181250000D01*
X399150000Y-166000000D02*
X400750000Y-167600000D01*
X449010000Y-181760000D02*
X453220000Y-181760000D01*
X448500000Y-181250000D02*
X449010000Y-181760000D01*
%TO.N,COL8*%
X277940000Y-228450000D02*
X282950000Y-233460000D01*
X273390000Y-252467500D02*
X273390000Y-254522316D01*
X277940000Y-214460000D02*
X277940000Y-228450000D01*
X268190000Y-195460000D02*
X268190000Y-204710000D01*
X282950000Y-233460000D02*
X282950000Y-242907500D01*
X283189684Y-264322000D02*
X349302000Y-264322000D01*
X268190000Y-204710000D02*
X277940000Y-214460000D01*
X273390000Y-254522316D02*
X283189684Y-264322000D01*
X282950000Y-242907500D02*
X273390000Y-252467500D01*
X268190000Y-167460000D02*
X268190000Y-195460000D01*
X349302000Y-264322000D02*
X356440000Y-271460000D01*
%TO.N,COL0*%
X123190000Y-233460000D02*
X123190000Y-247660000D01*
X123190000Y-247660000D02*
X127990000Y-252460000D01*
X127990000Y-252460000D02*
X127990000Y-261910000D01*
X127990000Y-261910000D02*
X118440000Y-271460000D01*
X116190000Y-195460000D02*
X116190000Y-209710000D01*
X116190000Y-167460000D02*
X116190000Y-195460000D01*
X116190000Y-209710000D02*
X120940000Y-214460000D01*
X120940000Y-231210000D02*
X123190000Y-233460000D01*
X120940000Y-214460000D02*
X120940000Y-231210000D01*
%TO.N,COL13*%
X363190000Y-167460000D02*
X363190000Y-185960000D01*
X372690000Y-195460000D02*
X372690000Y-209460000D01*
X387940000Y-214460000D02*
X425690000Y-252210000D01*
X372690000Y-209460000D02*
X377690000Y-214460000D01*
X377690000Y-214460000D02*
X387940000Y-214460000D01*
X363190000Y-185960000D02*
X372690000Y-195460000D01*
%TO.N,COL3*%
X196990000Y-252460000D02*
X196990000Y-254514816D01*
X187710000Y-233460000D02*
X187710000Y-243180000D01*
X187710000Y-243180000D02*
X196990000Y-252460000D01*
X182940000Y-214460000D02*
X182940000Y-228690000D01*
X173190000Y-195460000D02*
X173190000Y-204710000D01*
X173190000Y-167460000D02*
X173190000Y-195460000D01*
X213935184Y-271460000D02*
X237440000Y-271460000D01*
X196990000Y-254514816D02*
X213935184Y-271460000D01*
X173190000Y-204710000D02*
X182940000Y-214460000D01*
X182940000Y-228690000D02*
X187710000Y-233460000D01*
%TO.N,COL2*%
X154190000Y-167460000D02*
X154190000Y-195460000D01*
X168610000Y-233460000D02*
X168610000Y-243080000D01*
X168610000Y-243080000D02*
X177990000Y-252460000D01*
X177990000Y-259410000D02*
X165940000Y-271460000D01*
X163940000Y-228790000D02*
X168610000Y-233460000D01*
X154190000Y-204710000D02*
X163940000Y-214460000D01*
X163940000Y-214460000D02*
X163940000Y-228790000D01*
X177990000Y-252460000D02*
X177990000Y-259410000D01*
X154190000Y-195460000D02*
X154190000Y-204710000D01*
%TO.N,COL4*%
X192190000Y-167460000D02*
X192190000Y-195460000D01*
X201940000Y-228590000D02*
X206810000Y-233460000D01*
X192190000Y-204710000D02*
X201940000Y-214460000D01*
X302604000Y-265124000D02*
X308940000Y-271460000D01*
X222626000Y-265124000D02*
X302604000Y-265124000D01*
X201940000Y-214460000D02*
X201940000Y-228590000D01*
X192190000Y-195460000D02*
X192190000Y-204710000D01*
X206810000Y-243280000D02*
X215990000Y-252460000D01*
X215990000Y-252460000D02*
X215990000Y-262760000D01*
X218480000Y-265250000D02*
X222500000Y-265250000D01*
X222500000Y-265250000D02*
X222626000Y-265124000D01*
X215990000Y-262760000D02*
X218480000Y-265250000D01*
X206810000Y-233460000D02*
X206810000Y-243280000D01*
%TO.N,COL10*%
X315940000Y-214460000D02*
X315940000Y-228440000D01*
X306190000Y-195460000D02*
X306190000Y-204710000D01*
X321010000Y-233510000D02*
X321010000Y-242847500D01*
X354520000Y-263520000D02*
X356849000Y-265849000D01*
X311390000Y-255890000D02*
X319020000Y-263520000D01*
X306190000Y-167460000D02*
X306190000Y-195460000D01*
X319020000Y-263520000D02*
X354520000Y-263520000D01*
X315940000Y-228440000D02*
X321010000Y-233510000D01*
X356849000Y-265849000D02*
X401249000Y-265849000D01*
X321010000Y-242847500D02*
X311390000Y-252467500D01*
X401249000Y-265849000D02*
X406610000Y-271210000D01*
X306190000Y-204710000D02*
X315940000Y-214460000D01*
X311390000Y-252467500D02*
X311390000Y-255890000D01*
%TO.N,COL1*%
X135190000Y-195460000D02*
X135190000Y-204880000D01*
X135190000Y-167460000D02*
X135190000Y-195460000D01*
X149440000Y-233460000D02*
X149440000Y-242910000D01*
X143040000Y-271460000D02*
X142190000Y-271460000D01*
X158990000Y-255510000D02*
X143040000Y-271460000D01*
X144770000Y-228790000D02*
X149440000Y-233460000D01*
X149440000Y-242910000D02*
X158990000Y-252460000D01*
X158990000Y-252460000D02*
X158990000Y-255510000D01*
X144770000Y-214460000D02*
X144770000Y-228790000D01*
X135190000Y-204880000D02*
X144770000Y-214460000D01*
%TO.N,COL9*%
X375150000Y-266250000D02*
X380360000Y-271460000D01*
X287190000Y-167460000D02*
X287190000Y-195460000D01*
X302000000Y-242850000D02*
X292390000Y-252460000D01*
X356000000Y-266250000D02*
X375150000Y-266250000D01*
X292390000Y-252460000D02*
X292390000Y-254514816D01*
X302000000Y-233510000D02*
X302000000Y-242850000D01*
X353671000Y-263921000D02*
X356000000Y-266250000D01*
X287190000Y-204710000D02*
X296940000Y-214460000D01*
X287190000Y-195460000D02*
X287190000Y-204710000D01*
X296940000Y-214460000D02*
X296940000Y-228450000D01*
X292390000Y-254514816D02*
X301796184Y-263921000D01*
X301796184Y-263921000D02*
X353671000Y-263921000D01*
X296940000Y-228450000D02*
X302000000Y-233510000D01*
%TO.N,COL11*%
X334940000Y-214460000D02*
X334940000Y-228370000D01*
X325190000Y-204710000D02*
X334940000Y-214460000D01*
X415369000Y-260889000D02*
X425690000Y-271210000D01*
X330390000Y-260890000D02*
X330750000Y-261250000D01*
X334940000Y-228370000D02*
X340080000Y-233510000D01*
X350111000Y-260889000D02*
X415369000Y-260889000D01*
X330390000Y-252467500D02*
X330390000Y-260890000D01*
X349750000Y-261250000D02*
X350111000Y-260889000D01*
X325190000Y-167460000D02*
X325190000Y-195460000D01*
X325190000Y-195460000D02*
X325190000Y-204710000D01*
X340080000Y-242777500D02*
X330390000Y-252467500D01*
X330750000Y-261250000D02*
X349750000Y-261250000D01*
X340080000Y-233510000D02*
X340080000Y-242777500D01*
%TO.N,COL12*%
X344190000Y-167460000D02*
X344190000Y-195460000D01*
X371090000Y-233502500D02*
X371090000Y-247560000D01*
X366190000Y-252460000D02*
X411210000Y-252460000D01*
X444690000Y-268940000D02*
X444690000Y-271210000D01*
X353940000Y-217329435D02*
X370113065Y-233502500D01*
X371090000Y-247560000D02*
X366190000Y-252460000D01*
X344190000Y-204710000D02*
X353940000Y-214460000D01*
X424250000Y-265500000D02*
X441250000Y-265500000D01*
X344190000Y-195460000D02*
X344190000Y-204710000D01*
X353940000Y-214460000D02*
X353940000Y-217329435D01*
X411210000Y-252460000D02*
X424250000Y-265500000D01*
X441250000Y-265500000D02*
X444690000Y-268940000D01*
X370113065Y-233502500D02*
X371090000Y-233502500D01*
%TO.N,COL7*%
X254190000Y-255690000D02*
X263223000Y-264723000D01*
X249190000Y-204710000D02*
X258940000Y-214460000D01*
X254190000Y-252467500D02*
X254190000Y-255690000D01*
X258940000Y-214460000D02*
X258940000Y-228540000D01*
X258940000Y-228540000D02*
X263910000Y-233510000D01*
X249190000Y-195460000D02*
X249190000Y-204710000D01*
X325953000Y-264723000D02*
X332690000Y-271460000D01*
X249190000Y-167460000D02*
X249190000Y-195460000D01*
X263910000Y-233510000D02*
X263910000Y-242747500D01*
X263223000Y-264723000D02*
X325953000Y-264723000D01*
X263910000Y-242747500D02*
X254190000Y-252467500D01*
%TO.N,COL5*%
X225860000Y-243130000D02*
X235190000Y-252460000D01*
X211190000Y-204710000D02*
X220940000Y-214460000D01*
X211190000Y-167460000D02*
X211190000Y-195460000D01*
X220940000Y-214460000D02*
X220940000Y-228590000D01*
X220940000Y-228590000D02*
X225860000Y-233510000D01*
X225860000Y-233510000D02*
X225860000Y-243130000D01*
X211190000Y-195460000D02*
X211190000Y-204710000D01*
%TO.N,COL6*%
X230190000Y-195460000D02*
X230190000Y-204710000D01*
X230190000Y-204710000D02*
X239940000Y-214460000D01*
X239940000Y-228490000D02*
X244910000Y-233460000D01*
X230190000Y-167460000D02*
X230190000Y-195460000D01*
X239940000Y-214460000D02*
X239940000Y-228490000D01*
%TO.N,Net-(D1-K)*%
X122460000Y-165000000D02*
X122540000Y-164920000D01*
X111000000Y-165000000D02*
X122460000Y-165000000D01*
%TO.N,Net-(D2-K)*%
X130000000Y-165000000D02*
X141460000Y-165000000D01*
X141460000Y-165000000D02*
X141540000Y-164920000D01*
%TO.N,Net-(D3-K)*%
X149000000Y-165000000D02*
X160460000Y-165000000D01*
X160460000Y-165000000D02*
X160540000Y-164920000D01*
%TO.N,Net-(D4-K)*%
X179460000Y-165000000D02*
X179540000Y-164920000D01*
X168000000Y-165000000D02*
X179460000Y-165000000D01*
%TO.N,Net-(D5-K)*%
X187000000Y-165000000D02*
X198460000Y-165000000D01*
X198460000Y-165000000D02*
X198540000Y-164920000D01*
%TO.N,Net-(D6-K)*%
X206000000Y-165000000D02*
X206750000Y-165000000D01*
X206830000Y-164920000D02*
X217540000Y-164920000D01*
X206750000Y-165000000D02*
X206830000Y-164920000D01*
%TO.N,Net-(D7-K)*%
X236460000Y-165000000D02*
X236540000Y-164920000D01*
X225000000Y-165000000D02*
X236460000Y-165000000D01*
%TO.N,Net-(D8-K)*%
X244000000Y-165000000D02*
X255460000Y-165000000D01*
X255460000Y-165000000D02*
X255540000Y-164920000D01*
%TO.N,Net-(D9-K)*%
X263000000Y-165000000D02*
X274460000Y-165000000D01*
X274460000Y-165000000D02*
X274540000Y-164920000D01*
%TO.N,Net-(D10-K)*%
X293460000Y-165000000D02*
X293540000Y-164920000D01*
X282000000Y-165000000D02*
X293460000Y-165000000D01*
%TO.N,Net-(D11-K)*%
X312460000Y-165000000D02*
X312540000Y-164920000D01*
X301000000Y-165000000D02*
X312460000Y-165000000D01*
%TO.N,Net-(D12-K)*%
X331460000Y-165000000D02*
X331540000Y-164920000D01*
X320000000Y-165000000D02*
X331460000Y-165000000D01*
%TO.N,Net-(D13-K)*%
X339000000Y-165000000D02*
X350460000Y-165000000D01*
X350460000Y-165000000D02*
X350540000Y-164920000D01*
%TO.N,Net-(D14-K)*%
X358000000Y-165000000D02*
X369460000Y-165000000D01*
X369460000Y-165000000D02*
X369540000Y-164920000D01*
%TO.N,Net-(D15-K)*%
X388540000Y-165000000D02*
X388620000Y-164920000D01*
X377000000Y-165000000D02*
X388540000Y-165000000D01*
%TO.N,COL6*%
X406500000Y-224500000D02*
X456250000Y-224500000D01*
%TO.N,COL7*%
X448250000Y-198750000D02*
X450000000Y-197000000D01*
X450000000Y-197000000D02*
X453220000Y-197000000D01*
%TO.N,COL1*%
X453541000Y-162541000D02*
X455000000Y-164000000D01*
X444000000Y-155500000D02*
X451041000Y-162541000D01*
X152941314Y-155500000D02*
X444000000Y-155500000D01*
X451041000Y-162541000D02*
X453541000Y-162541000D01*
X140981314Y-167460000D02*
X152941314Y-155500000D01*
X135190000Y-167460000D02*
X140981314Y-167460000D01*
%TD*%
M02*
